<svg xmlns="http://www.w3.org/2000/svg" width="66.127" height="20" viewBox="0 0 66.127 20"><defs><style>.a{fill:#1c9ab7;}</style></defs><path class="a" d="M9145.034,3154.5l-.777-4.724h-3.767l-.687,4.724h-2.063l2.9-18.595h3.259l3.2,18.595Zm-4.306-6.487h3.259l-1.733-10.673Z" transform="translate(-9137.739 -3134.504)"/><path class="a" d="M9287.137,3189.423h1.2a2.088,2.088,0,0,1,2.362,2.362v12.137h-2.062v-11.809a1.182,1.182,0,0,0-.164-.748,1.1,1.1,0,0,0-.763-.179h-1.2a1.067,1.067,0,0,0-.777.239,1.168,1.168,0,0,0-.239.837v11.659h-2.062v-14.5h2.063v.987A1.52,1.52,0,0,1,9287.137,3189.423Z" transform="translate(-9272.279 -3183.922)"/><path class="a" d="M9418.7,3189.423h2.063v14.5H9418.7v-.987a1.518,1.518,0,0,1-1.644.987h-1.2a2.087,2.087,0,0,1-2.361-2.362v-12.137h2.063v11.809a1.092,1.092,0,0,0,.18.762,1.172,1.172,0,0,0,.747.164h1.2a1.068,1.068,0,0,0,.777-.239,1.168,1.168,0,0,0,.238-.837Z" transform="translate(-9392.395 -3183.922)"/><path class="a" d="M9530.008,3189.423l1.943,13.064,1.974-13.064h2.063l-2.392,14.5h-3.259l-2.392-14.5Z" transform="translate(-9498.081 -3183.922)"/><path class="a" d="M9655.794,3189.423h2.063v14.5h-2.062v-.987a1.52,1.52,0,0,1-1.645.987h-1.2a2.087,2.087,0,0,1-2.361-2.362v-9.776a2.087,2.087,0,0,1,2.361-2.362h1.2a1.52,1.52,0,0,1,1.645.987Zm-2.212,12.735h1.2a1.068,1.068,0,0,0,.777-.239,1.168,1.168,0,0,0,.239-.837v-8.819a1.168,1.168,0,0,0-.239-.837,1.068,1.068,0,0,0-.777-.239h-1.2a1.091,1.091,0,0,0-.763.179,1.168,1.168,0,0,0-.165.748v9.118a.72.72,0,0,0,.928.927Z" transform="translate(-9611.34 -3183.922)"/><path class="a" d="M9783.909,3189.423h2.063v14.5h-2.062v-.987a1.52,1.52,0,0,1-1.645.987h-1.2a2.088,2.088,0,0,1-2.362-2.362v-9.776a2.088,2.088,0,0,1,2.362-2.362h1.2a1.52,1.52,0,0,1,1.645.987Zm-2.212,12.735h1.2a1.068,1.068,0,0,0,.777-.239,1.168,1.168,0,0,0,.239-.837v-8.819a1.168,1.168,0,0,0-.239-.837,1.068,1.068,0,0,0-.777-.239h-1.2a1.092,1.092,0,0,0-.763.179,1.168,1.168,0,0,0-.165.748v9.118a.72.72,0,0,0,.928.927Z" transform="translate(-9729.65 -3183.922)"/><path class="a" d="M9912.023,3117.551h2.063v20h-2.062v-.987a1.52,1.52,0,0,1-1.645.987h-1.2a2.087,2.087,0,0,1-2.361-2.362v-9.806a2.087,2.087,0,0,1,2.361-2.362h1.2a1.52,1.52,0,0,1,1.645.987Zm-2.213,18.236h1.2a1.069,1.069,0,0,0,.778-.239,1.168,1.168,0,0,0,.239-.837v-8.849a1.17,1.17,0,0,0-.239-.837,1.071,1.071,0,0,0-.778-.239h-1.2a.72.72,0,0,0-.927.927v9.148a.719.719,0,0,0,.927.927Z" transform="translate(-9847.959 -3117.551)"/></svg>