<svg width="224" height="70" viewBox="0 0 224 70" fill="none" xmlns="http://www.w3.org/2000/svg">
<path d="M224 0H0V70H224V0Z" fill="white"/>
<path d="M185.681 24.5439C186.972 24.5439 187.939 25.3419 187.939 27.2645V41.8471C187.939 43.806 186.972 44.604 185.681 44.604C184.319 44.604 183.423 43.806 183.423 41.8471V27.5184C183.423 25.2331 184.319 24.5439 185.681 24.5439Z" fill="#0D3AA9"/>
<path d="M141.774 35.3176V31.9077C141.774 29.7312 140.735 28.7518 138.943 28.7518H138.298C136.541 28.7518 135.466 29.7312 135.466 31.9077V35.3176H141.774ZM135.466 39.1265V41.8471C135.466 43.806 134.498 44.604 133.208 44.604C131.846 44.604 130.95 43.806 130.95 41.8471V31.9077C130.95 27.3008 133.531 24.5439 137.688 24.5439H139.516C143.746 24.5439 146.29 27.3008 146.29 31.9077V41.8471C146.29 43.806 145.323 44.604 144.032 44.604C142.706 44.604 141.774 43.806 141.774 41.8471V39.1265H135.466Z" fill="#0D3AA9"/>
<path d="M212.742 24.5439C214.032 24.5439 215 25.3419 215 27.2645V41.8471C215 43.806 214.032 44.604 212.742 44.604C211.38 44.604 210.484 43.806 210.484 41.8471V27.5184C210.484 25.2331 211.38 24.5439 212.742 24.5439Z" fill="#0D3AA9"/>
<path d="M195.573 33.2121L195.717 41.8456C195.717 43.8045 194.749 44.6025 193.459 44.6025C192.097 44.6025 191.201 43.8045 191.201 41.8456V26.61C191.201 25.2316 192.025 24.3972 193.423 24.3972C194.355 24.3972 195.215 24.9051 195.932 25.9208L202.814 36.1141L202.67 27.263C202.67 25.3404 203.638 24.5423 204.928 24.5423C206.219 24.5423 207.186 25.3404 207.186 27.263V42.5348C207.186 43.9133 206.362 44.7476 204.964 44.7476C203.996 44.7476 203.136 44.2398 202.419 43.1878L195.573 33.2121Z" fill="#0D3AA9"/>
<path d="M168.943 36.5509V41.8471C168.943 43.806 167.975 44.604 166.685 44.604C165.323 44.604 164.427 43.806 164.427 41.8471V27.2645C164.427 25.3419 165.323 24.5439 166.685 24.5439C167.975 24.5439 168.943 25.3419 168.943 27.2645V32.2705H175.573V27.2645C175.573 25.3419 176.541 24.5439 177.832 24.5439C179.194 24.5439 180.09 25.3419 180.09 27.2645V41.8471C180.09 43.806 179.194 44.604 177.832 44.604C176.541 44.604 175.573 43.806 175.573 41.8471V36.5509H168.943Z" fill="#0D3AA9"/>
<path d="M99.5161 40.6863H102.312C103.781 40.6863 104.606 39.8883 104.606 38.3647C104.606 36.8774 103.566 36.0431 101.702 36.0431H99.5161V40.6863ZM99.5161 32.343H101.129C102.491 32.343 103.495 31.545 103.495 30.2753C103.495 29.0057 102.778 28.389 101.344 28.389H99.5161V32.343ZM106.039 33.8666C108.011 34.5921 109.193 36.4421 109.193 38.4372C109.193 42.2461 106.792 44.604 102.025 44.604H97.1864C95.5735 44.604 95 44.1325 95 42.7177V26.4302C95 25.1968 95.5735 24.5439 97.1864 24.5439H101.272C105.896 24.5439 107.76 26.6478 107.76 29.8038C107.76 31.8352 106.9 33.2136 106.039 33.8666Z" fill="#0D3AA9"/>
<path d="M157.222 38.8365C157.222 38.111 157.007 37.5669 156.577 37.2767C156.147 36.9139 155.286 36.5149 154.068 36.0433C150.627 34.81 148.835 32.9962 148.835 30.0579C148.835 28.2079 149.48 26.7206 150.77 25.6686C152.061 24.5441 153.674 24 155.645 24C158.763 24 160.77 25.2333 160.77 26.9745C160.77 28.353 160.053 29.1148 158.763 29.1148C158.405 29.1148 157.975 28.9697 157.509 28.6795C157.007 28.353 156.433 28.2079 155.752 28.2079C154.39 28.2079 153.53 28.8608 153.53 30.0579C153.53 30.9648 154.426 31.7266 156.218 32.4158C158.297 33.1776 159.767 34.0119 160.627 34.8825C161.487 35.7531 161.917 37.0228 161.917 38.6914C161.917 40.6866 161.236 42.2464 159.874 43.4435C158.512 44.6043 156.792 45.1847 154.641 45.1847C152.957 45.1847 151.559 44.8945 150.412 44.2052C149.301 43.5523 148.727 42.7905 148.727 41.9199C148.727 40.6866 149.623 39.7434 150.985 39.7434C151.344 39.7434 151.846 39.9248 152.562 40.2875C153.279 40.6866 153.996 40.8679 154.713 40.8679C156.362 40.8679 157.222 39.9973 157.222 38.8365Z" fill="#0D3AA9"/>
<path d="M116.469 36.5509V41.8471C116.469 43.806 115.501 44.604 114.211 44.604C112.849 44.604 111.953 43.806 111.953 41.8471V27.2645C111.953 25.3419 112.849 24.5439 114.211 24.5439C115.501 24.5439 116.469 25.3419 116.469 27.2645V32.2705H123.1V27.2645C123.1 25.3419 124.068 24.5439 125.358 24.5439C126.72 24.5439 127.616 25.3419 127.616 27.2645V41.8471C127.616 43.806 126.72 44.604 125.358 44.604C124.068 44.604 123.1 43.806 123.1 41.8471V36.5509H116.469Z" fill="#0D3AA9"/>
<path fill-rule="evenodd" clip-rule="evenodd" d="M34.3828 43.876V41.3092H35.1995C35.4122 41.2973 35.6212 41.368 35.7829 41.5066C35.8576 41.5724 35.9165 41.6542 35.9554 41.7458C35.9942 41.8375 36.0119 41.9367 36.0073 42.0361C36.0224 42.1769 35.9909 42.3188 35.9175 42.44C35.8494 42.5578 35.741 42.647 35.6124 42.6913C35.4337 42.7533 35.2449 42.7807 35.0559 42.7721H34.7508V43.876H34.3828ZM35.1367 41.6323H34.7508V42.44H35.1547C35.2806 42.4485 35.4053 42.4102 35.5047 42.3323C35.5458 42.2934 35.5776 42.2458 35.5978 42.193C35.618 42.1402 35.626 42.0835 35.6213 42.0272C35.6213 41.7669 35.4598 41.6323 35.1367 41.6323V41.6323ZM36.9945 42.1797C37.1124 42.1797 37.2291 42.2029 37.338 42.248C37.4469 42.2931 37.5458 42.3593 37.6291 42.4426C37.7125 42.5259 37.7786 42.6249 37.8237 42.7338C37.8688 42.8427 37.892 42.9594 37.892 43.0772C37.8942 43.1902 37.8721 43.3024 37.8272 43.4061C37.7823 43.5099 37.7156 43.6028 37.6317 43.6785C37.5443 43.7607 37.4412 43.8244 37.3287 43.8661C37.2162 43.9077 37.0964 43.9263 36.9766 43.9209C36.7405 43.927 36.5116 43.84 36.3393 43.6785C36.2586 43.5989 36.1947 43.5038 36.1515 43.399C36.1084 43.2941 36.0868 43.1816 36.088 43.0682C36.085 42.9525 36.1067 42.8374 36.1516 42.7306C36.1964 42.6238 36.2635 42.5278 36.3483 42.449C36.434 42.3663 36.5352 42.3015 36.6462 42.2584C36.7571 42.2153 36.8755 42.1946 36.9945 42.1977V42.1797ZM36.9945 42.4849C36.9216 42.4806 36.8487 42.4921 36.7805 42.5184C36.7124 42.5447 36.6507 42.5853 36.5996 42.6374C36.4982 42.7471 36.4434 42.892 36.447 43.0413C36.4445 43.114 36.4567 43.1865 36.4829 43.2544C36.5091 43.3223 36.5488 43.3841 36.5996 43.4362C36.6541 43.4888 36.719 43.5296 36.79 43.5558C36.8611 43.5821 36.9368 43.5933 37.0125 43.5888C37.0867 43.5926 37.1608 43.581 37.2304 43.5547C37.2999 43.5285 37.3632 43.4881 37.4163 43.4362C37.5172 43.3298 37.5721 43.1879 37.5689 43.0413C37.571 42.9665 37.5577 42.8921 37.53 42.8226C37.5022 42.7532 37.4604 42.6902 37.4074 42.6374C37.3522 42.5857 37.2873 42.5455 37.2164 42.5193C37.1455 42.4931 37.07 42.4814 36.9945 42.4849V42.4849ZM40.3601 42.1797H40.7191L39.9742 43.9029H39.8575L39.3639 42.7272L38.8703 43.9029H38.7536L38.0087 42.1797H38.3677L38.8074 43.2118L39.2382 42.1797H39.5075L39.9293 43.2118L40.3781 42.1797H40.3601ZM42.3166 43.0772H41.114C41.1142 43.2249 41.1722 43.3666 41.2755 43.4721C41.3264 43.5215 41.387 43.5597 41.4534 43.5845C41.5198 43.6092 41.5907 43.6198 41.6615 43.6157C41.8818 43.6144 42.0959 43.542 42.2718 43.4093V43.7414C42.1775 43.8036 42.0747 43.852 41.9666 43.885C41.8494 43.9154 41.7287 43.9305 41.6076 43.9298C41.45 43.9346 41.2942 43.8941 41.1589 43.8132C41.0426 43.7319 40.9473 43.6243 40.8806 43.499C40.7933 43.326 40.7579 43.1315 40.7786 42.9388C40.7993 42.7462 40.8753 42.5636 40.9973 42.4131C41.0677 42.3333 41.155 42.2702 41.2528 42.2283C41.3505 42.1864 41.4564 42.1667 41.5627 42.1708C41.6642 42.1671 41.7652 42.1862 41.8584 42.2265C41.9515 42.2669 42.0345 42.3276 42.1012 42.4041C42.2418 42.5857 42.3119 42.812 42.2987 43.0413V43.0413L42.3166 43.0772ZM41.1409 42.8798H41.9846C41.9854 42.767 41.9437 42.6581 41.8679 42.5746C41.8302 42.5375 41.7852 42.5088 41.7357 42.4902C41.6863 42.4717 41.6334 42.4637 41.5807 42.4669C41.4719 42.4641 41.3661 42.5026 41.2845 42.5746C41.2035 42.6572 41.1529 42.7647 41.1409 42.8798ZM43.0436 42.2067V42.5926C43.2051 42.3323 43.3667 42.1977 43.5282 42.1977C43.6804 42.2101 43.8219 42.2809 43.9231 42.3951L43.7436 42.6823C43.6597 42.5903 43.5445 42.5327 43.4205 42.5208C43.3656 42.5232 43.3119 42.5382 43.2637 42.5647C43.2154 42.5911 43.1739 42.6283 43.1423 42.6733C43.0628 42.7792 43.0217 42.909 43.0256 43.0413V43.9388H42.6846V42.1797L43.0436 42.2067ZM44.5783 41.3092H46.6874V41.6323H45.7899V43.876H45.4219V41.6323H44.5245V41.3092H44.5783ZM47.2708 42.2067C47.5081 42.2029 47.7372 42.2932 47.908 42.4579C47.993 42.5385 48.0602 42.6361 48.105 42.7444C48.1499 42.8526 48.1714 42.9691 48.1683 43.0862C48.1704 43.1992 48.1483 43.3114 48.1034 43.4151C48.0585 43.5189 47.9919 43.6117 47.908 43.6875C47.8205 43.7696 47.7175 43.8334 47.605 43.875C47.4924 43.9167 47.3727 43.9353 47.2528 43.9298C47.0168 43.936 46.7879 43.849 46.6156 43.6875C46.4591 43.5211 46.372 43.3012 46.372 43.0727C46.372 42.8443 46.4591 42.6244 46.6156 42.4579C46.7023 42.3742 46.805 42.3088 46.9176 42.2656C47.0302 42.2224 47.1503 42.2024 47.2708 42.2067ZM47.2708 42.5118C47.1979 42.5076 47.1249 42.519 47.0568 42.5453C46.9887 42.5716 46.927 42.6122 46.8759 42.6644C46.8228 42.7171 46.7811 42.7801 46.7533 42.8496C46.7255 42.919 46.7122 42.9935 46.7143 43.0682C46.7113 43.1418 46.7241 43.2152 46.752 43.2833C46.7799 43.3515 46.8221 43.4128 46.8759 43.4631C46.929 43.5151 46.9924 43.5554 47.0619 43.5817C47.1314 43.6079 47.2055 43.6195 47.2798 43.6157C47.3541 43.6213 47.4288 43.6105 47.4986 43.5841C47.5683 43.5578 47.6315 43.5165 47.6836 43.4631C47.7365 43.4121 47.7781 43.3507 47.8059 43.2827C47.8337 43.2147 47.8471 43.1417 47.8452 43.0682C47.8473 42.9935 47.834 42.919 47.8062 42.8496C47.7784 42.7801 47.7367 42.7171 47.6836 42.6644C47.6282 42.613 47.5632 42.5732 47.4924 42.547C47.4216 42.5208 47.3462 42.5088 47.2708 42.5118V42.5118ZM49.6491 41.3361H51.1031V41.6592H49.9812V42.44H51.0313V42.7721H49.9812V43.5708H51.1031V43.9029H49.6132V41.3092L49.6491 41.3361ZM52.8711 42.6733V43.876H52.5301V42.9336C52.5442 42.7978 52.5193 42.6609 52.4583 42.5387C52.4244 42.4945 52.3781 42.4615 52.3253 42.4439C52.2725 42.4263 52.2157 42.4249 52.1621 42.44C52.0926 42.4399 52.0244 42.4585 51.9647 42.4938C51.8896 42.5391 51.8229 42.5967 51.7672 42.6644V43.876H51.4351V42.1797H51.7672V42.44C51.894 42.2905 52.0746 42.197 52.2698 42.1797C52.3734 42.18 52.4747 42.2097 52.5621 42.2653C52.6495 42.3209 52.7193 42.4002 52.7634 42.4938C52.8289 42.4033 52.9135 42.3282 53.0112 42.2739C53.1089 42.2196 53.2173 42.1875 53.3288 42.1797C53.4051 42.1788 53.4807 42.1943 53.5504 42.2253C53.6201 42.2563 53.6823 42.302 53.7327 42.3592C53.852 42.5191 53.9094 42.7168 53.8943 42.9157V43.876H53.5532V42.8708C53.5611 42.7573 53.5328 42.6442 53.4724 42.5477C53.4432 42.5092 53.4051 42.4785 53.3613 42.4582C53.3175 42.4378 53.2694 42.4285 53.2211 42.431C53.1447 42.4351 53.0701 42.4567 53.0032 42.494C52.9363 42.5314 52.8789 42.5835 52.8352 42.6464L52.8711 42.6733ZM54.361 44.7645V42.1797H54.9533C55.2136 42.1764 55.466 42.269 55.6623 42.44C55.7462 42.521 55.812 42.6189 55.8553 42.7272C55.8986 42.8355 55.9185 42.9517 55.9136 43.0682C55.9185 43.184 55.8995 43.2995 55.8578 43.4076C55.8162 43.5157 55.7526 43.614 55.6713 43.6965C55.5936 43.7767 55.4999 43.8397 55.3963 43.8814C55.2927 43.9231 55.1816 43.9427 55.07 43.9388C54.9497 43.9386 54.8306 43.9142 54.7199 43.867V44.7645H54.361ZM54.9443 42.5208H54.6751V43.5619C54.7714 43.6147 54.8794 43.6425 54.9892 43.6426C55.0614 43.6456 55.1334 43.6327 55.2001 43.6048C55.2668 43.5769 55.3265 43.5346 55.3751 43.4811C55.4777 43.3649 55.5322 43.2141 55.5277 43.0593C55.5274 42.9563 55.5028 42.8548 55.4559 42.7631C55.4146 42.6841 55.3483 42.621 55.2674 42.5836C55.1541 42.5356 55.0313 42.5141 54.9084 42.5208H54.9443ZM57.0804 42.2067C57.3176 42.2029 57.5467 42.2932 57.7176 42.4579C57.8026 42.5385 57.8697 42.6361 57.9146 42.7444C57.9594 42.8526 57.981 42.9691 57.9778 43.0862C57.98 43.1992 57.9579 43.3114 57.913 43.4151C57.8681 43.5189 57.8015 43.6117 57.7176 43.6875C57.6301 43.7696 57.5271 43.8334 57.4145 43.875C57.302 43.9167 57.1823 43.9353 57.0624 43.9298C56.8264 43.936 56.5974 43.849 56.4252 43.6875C56.3427 43.6092 56.2777 43.5144 56.2344 43.4092C56.1911 43.304 56.1704 43.1909 56.1739 43.0772C56.1691 42.9612 56.1899 42.8456 56.2349 42.7385C56.2799 42.6315 56.3479 42.5357 56.4342 42.4579C56.5198 42.3753 56.6211 42.3105 56.732 42.2674C56.8429 42.2242 56.9614 42.2036 57.0804 42.2067V42.2067ZM57.0804 42.5118C57.0075 42.5076 56.9345 42.519 56.8664 42.5453C56.7983 42.5716 56.7366 42.6122 56.6855 42.6644C56.6324 42.7171 56.5906 42.7801 56.5628 42.8496C56.5351 42.919 56.5218 42.9935 56.5239 43.0682C56.5208 43.1418 56.5337 43.2152 56.5615 43.2833C56.5894 43.3515 56.6317 43.4128 56.6855 43.4631C56.7386 43.5151 56.8019 43.5554 56.8714 43.5817C56.9409 43.6079 57.0151 43.6195 57.0893 43.6157C57.1637 43.6213 57.2384 43.6105 57.3081 43.5841C57.3779 43.5578 57.4411 43.5165 57.4932 43.4631C57.546 43.4121 57.5877 43.3507 57.6155 43.2827C57.6433 43.2147 57.6567 43.1417 57.6547 43.0682C57.6568 42.9935 57.6436 42.919 57.6158 42.8496C57.588 42.7801 57.5463 42.7171 57.4932 42.6644C57.4381 42.6126 57.3731 42.5725 57.3022 42.5463C57.2313 42.5201 57.1559 42.5083 57.0804 42.5118V42.5118ZM60.437 42.2067H60.796L60.051 43.9298H59.9433L59.4407 42.7541L58.9471 43.9298H58.8394L58.0945 42.2067H58.4535L58.8933 43.2388L59.2523 42.1797H59.5036L59.9254 43.2118L60.3652 42.1797L60.437 42.2067ZM62.4025 43.1041H61.155C61.1547 43.1781 61.1697 43.2514 61.1991 43.3194C61.2284 43.3873 61.2714 43.4485 61.3255 43.499C61.3763 43.5484 61.4369 43.5867 61.5034 43.6114C61.5698 43.6361 61.6406 43.6467 61.7114 43.6426C61.9315 43.6401 62.1452 43.5678 62.3217 43.4362V43.7683C62.2265 43.8289 62.124 43.8772 62.0165 43.9119C61.8992 43.9417 61.7786 43.9568 61.6576 43.9568C61.4998 43.9626 61.3438 43.922 61.2088 43.8401C61.0894 43.7624 60.9933 43.6538 60.9306 43.526C60.8546 43.3857 60.8175 43.2277 60.8229 43.0682C60.8142 42.8378 60.8945 42.6128 61.0473 42.44C61.1177 42.3602 61.2049 42.2971 61.3027 42.2552C61.4005 42.2133 61.5064 42.1937 61.6127 42.1977C61.7141 42.194 61.8151 42.2131 61.9083 42.2535C62.0015 42.2938 62.0844 42.3545 62.1512 42.431C62.2917 42.6126 62.3619 42.839 62.3486 43.0682V43.0682L62.4025 43.1041ZM61.2178 42.9067H62.0704C62.0712 42.7939 62.0296 42.685 61.9537 42.6015C61.9155 42.5653 61.8703 42.5372 61.821 42.5187C61.7717 42.5002 61.7192 42.4917 61.6665 42.4938C61.5574 42.4892 61.451 42.5279 61.3704 42.6015C61.2898 42.6855 61.2366 42.7919 61.2178 42.9067V42.9067ZM63.1205 42.2336V42.6195C63.282 42.3592 63.4436 42.2246 63.6051 42.2246C63.6807 42.2298 63.7545 42.25 63.8223 42.2839C63.8901 42.3178 63.9505 42.3647 64 42.422L63.8295 42.7092C63.7946 42.6396 63.744 42.5791 63.6817 42.5323C63.6194 42.4856 63.5471 42.454 63.4705 42.44C63.4141 42.4417 63.3589 42.4564 63.3091 42.4828C63.2593 42.5093 63.2163 42.5468 63.1833 42.5926C63.1073 42.7002 63.0665 42.8288 63.0666 42.9605V43.858H62.7345V42.1797L63.1205 42.2336Z" fill="#444847"/>
<path fill-rule="evenodd" clip-rule="evenodd" d="M25.5066 42.9785L24.8066 44.235C23.4161 46.6087 21.4098 48.5624 18.9998 49.8892C18.7575 49.9969 18.578 50.0866 18.3357 50.1853C18.0959 50.2645 17.862 50.3605 17.6356 50.4725C22.0718 49.6758 26.0713 47.3048 28.8991 43.7952C31.3493 40.8335 33.8712 36.0319 33.5122 30.6021C33.225 25.3877 30.2274 21.4387 25.8387 20.3348C21.1538 19.1501 17.6177 21.2323 15.0688 24.6427C14.7549 25.0589 14.4758 25.5002 14.2341 25.9621C17.6895 24.2389 21.809 23.476 25.2823 25.9621C28.3158 28.1609 29.2222 32.5855 28.4324 36.4447C27.9633 38.518 27.1209 40.4887 25.9464 42.2605C25.8566 42.422 25.5515 42.8169 25.5066 42.9426V42.9785Z" fill="#E76120"/>
<path fill-rule="evenodd" clip-rule="evenodd" d="M13.4174 50.2392C13.0943 50.4636 11.8378 50.0687 11.5058 50.0148C12.3777 50.5317 13.3578 50.839 14.3688 50.9123C15.4734 50.9499 16.5768 50.8074 17.6356 50.4905C17.862 50.3785 18.0959 50.2825 18.3357 50.2033C18.578 50.1046 18.7575 50.0148 18.9998 49.9071C21.4121 48.5754 23.4187 46.6154 24.8066 44.235L25.5066 43.0054C25.5874 42.7541 25.7759 42.4221 25.8836 42.1618C26.9235 39.9768 27.4105 37.5698 27.3016 35.1524C27.2178 33.8267 26.8407 32.5362 26.1977 31.3739C25.1998 29.7154 23.6269 28.4816 21.7784 27.9073C19.9299 27.3331 17.9348 27.4585 16.1727 28.2597C14.304 29.1279 12.7739 30.5886 11.8199 32.415C11.6763 32.6663 11.5596 32.9625 11.434 33.1779C11.7252 33.0486 12.0098 32.9049 12.2866 32.7471C13.2431 32.2693 14.2655 31.9365 15.3201 31.7599C18.21 31.2842 21.2615 32.2176 22.7334 34.7036C23.4356 36.0877 23.6897 37.6561 23.4604 39.1911C23.1098 41.9282 22.0277 44.5202 20.3281 46.6941C19.9304 47.1847 19.4986 47.6466 19.0357 48.0763C18.5682 48.4912 18.0669 48.8665 17.5369 49.1981C16.5407 49.8174 14.5393 50.5713 13.4174 50.2751V50.2392Z" fill="#009844"/>
<path fill-rule="evenodd" clip-rule="evenodd" d="M11.5058 50.0148C11.8378 50.0686 13.0943 50.4635 13.4174 50.2392C13.1775 50.1795 12.9561 50.0614 12.7729 49.8954C12.5897 49.7294 12.4504 49.5207 12.3674 49.2878C11.775 47.9236 12.2776 45.4286 12.6007 44.0824C12.87 43.0054 13.1572 42.0092 13.4982 40.9681L14.5124 37.9974H10.5006C10.1216 39.0016 9.82153 40.0339 9.60309 41.0848C8.89407 43.8849 8.15813 48.7224 11.5058 50.0148Z" fill="#005BA1"/>
<path fill-rule="evenodd" clip-rule="evenodd" d="M10.3749 35.3408L10.6711 35.6729C10.8864 35.4469 11.1383 35.2588 11.416 35.1164C11.7523 34.9503 12.1224 34.8638 12.4975 34.8638C12.8726 34.8638 13.2427 34.9503 13.579 35.1164C13.723 35.1926 13.861 35.2796 13.9918 35.3767C14.1107 35.4865 14.2367 35.5884 14.3688 35.6819L14.6649 35.3767C14.4175 35.0906 14.1114 34.861 13.7674 34.7036C13.3711 34.5134 12.9371 34.4146 12.4975 34.4146C12.0579 34.4146 11.6239 34.5134 11.2275 34.7036C10.8834 34.8608 10.5773 35.0904 10.33 35.3767L10.3749 35.3408Z" fill="#005BA1"/>
<path fill-rule="evenodd" clip-rule="evenodd" d="M10.8955 35.9063L11.2006 36.2473C11.4614 35.9848 11.7946 35.806 12.1576 35.7341C12.5205 35.6621 12.8967 35.7002 13.2379 35.8434C13.4495 35.9335 13.637 36.0718 13.7854 36.2473L14.1444 35.8524C13.7052 35.422 13.1169 35.1777 12.502 35.1703C12.1973 35.1719 11.8964 35.2383 11.6194 35.3652C11.3424 35.4921 11.0956 35.6765 10.8955 35.9063V35.9063Z" fill="#005BA1"/>
<path fill-rule="evenodd" clip-rule="evenodd" d="M11.4788 36.4896L11.8019 36.7499L11.8917 36.6871C12.0664 36.5511 12.2806 36.4755 12.502 36.4717C12.9597 36.4717 13.0494 36.6601 13.3456 36.8037L13.561 36.4896C13.429 36.3448 13.2682 36.2292 13.0889 36.1501C12.9097 36.0709 12.7159 36.0301 12.5199 36.0301C12.324 36.0301 12.1302 36.0709 11.9509 36.1501C11.7717 36.2292 11.6109 36.3448 11.4788 36.4896V36.4896Z" fill="#005BA1"/>
<path fill-rule="evenodd" clip-rule="evenodd" d="M11.9904 37.0551L12.5738 37.6384L13.0495 37.0551C12.9846 36.9777 12.9036 36.9155 12.8121 36.8728C12.7206 36.8302 12.6209 36.808 12.5199 36.808C12.419 36.808 12.3193 36.8302 12.2278 36.8728C12.1363 36.9155 12.0553 36.9777 11.9904 37.0551V37.0551Z" fill="#005BA1"/>
<path fill-rule="evenodd" clip-rule="evenodd" d="M36.1419 36.0588C38.26 35.8614 37.5689 38.15 36.6355 38.6526C36.1822 38.8302 35.6909 38.8889 35.2085 38.8231L36.106 36.0588H36.1419ZM34.1854 39.5142C35.0634 39.5998 35.9492 39.5575 36.815 39.3885C38.3318 38.7513 38.7626 36.5614 38.0087 35.7447C37.5151 35.2152 36.3124 35.3588 35.5854 35.3498L34.2123 39.5142H34.1854Z" fill="#444847"/>
<path fill-rule="evenodd" clip-rule="evenodd" d="M40.3152 39.8283C40.8447 39.6667 41.482 40.2321 40.737 40.3757C39.9921 40.5193 39.4985 40.0706 40.3152 39.8283ZM41.1589 37.3332C41.7781 37.1268 41.5448 38.1141 41.2127 38.2307C40.8806 38.3474 40.7011 38.2307 40.7729 37.8448C40.8447 37.4589 40.9255 37.3781 41.1589 37.2973V37.3332ZM40.3511 38.6077C40.2382 38.6207 40.1302 38.661 40.0364 38.7251C39.9426 38.7892 39.8658 38.8752 39.8126 38.9756C39.7557 39.0862 39.7425 39.2141 39.7758 39.3339C39.8091 39.4537 39.8863 39.5565 39.9921 39.6218C39.2921 39.8911 39.0946 40.3668 39.3908 40.6899C39.8934 41.1924 42.1371 40.977 41.7602 39.6577C41.5897 39.0385 40.6563 39.2898 40.5037 38.9756C40.6473 38.6166 41.0063 39.0474 41.7422 38.5628C41.9129 38.4165 42.0441 38.2298 42.1241 38.0197C42.204 37.8096 42.2301 37.5829 42.1999 37.3602H42.5948L42.7564 36.7678C41.8589 36.6422 40.4498 36.6332 40.1178 37.6653C40.0632 37.8498 40.0632 38.0462 40.1178 38.2307C40.1287 38.3036 40.1598 38.372 40.2075 38.4282L40.3601 38.6346L40.3511 38.6077Z" fill="#444847"/>
<path fill-rule="evenodd" clip-rule="evenodd" d="M58.1035 38.85C56.9637 39.0923 57.206 37.3422 58.5971 37.4051C58.4707 37.8989 58.3057 38.3821 58.1035 38.85V38.85ZM58.8484 36.6781C57.7983 36.7499 56.9637 36.9025 56.6585 38.1141C56.2906 39.559 57.556 39.6488 58.6689 39.4603L60.0331 35.3229H59.2972L58.8484 36.6781V36.6781Z" fill="#444847"/>
<path fill-rule="evenodd" clip-rule="evenodd" d="M48.0247 37.3961C47.9349 37.7551 47.7913 38.1231 47.6836 38.4821C47.5759 38.8411 47.5849 38.7693 47.3515 38.868C46.4541 39.2449 46.6964 38.2667 47.0374 37.8359C47.1397 37.6728 47.2882 37.5439 47.4641 37.4656C47.6399 37.3873 47.835 37.3631 48.0247 37.3961V37.3961ZM47.3605 39.3077C47.3651 39.3315 47.3651 39.3558 47.3605 39.3795C47.3605 39.3795 47.3605 39.4693 47.3605 39.5231H48.0516L48.9491 36.7858C48.3794 36.647 47.7821 36.6719 47.2259 36.8576C45.4937 37.5128 45.5296 40.4476 47.3336 39.3077H47.3605Z" fill="#444847"/>
<path fill-rule="evenodd" clip-rule="evenodd" d="M63.0217 37.3961C62.9499 37.7371 62.7794 38.141 62.6717 38.482C62.6548 38.5714 62.6168 38.6554 62.5611 38.7273C62.5053 38.7991 62.4332 38.8567 62.3509 38.8952C62.2685 38.9338 62.1782 38.9522 62.0873 38.9491C61.9964 38.9459 61.9075 38.9212 61.8281 38.8769C61.5768 38.5987 61.8909 37.3243 63.0217 37.3961V37.3961ZM62.3576 39.3077V39.5231H63.0397L63.9372 36.8307C63.452 36.665 62.9259 36.6631 62.4395 36.8252C61.9532 36.9873 61.5334 37.3045 61.2447 37.7281C60.6344 38.7872 61.0383 40.2232 62.3396 39.3436L62.3576 39.3077Z" fill="#444847"/>
<path fill-rule="evenodd" clip-rule="evenodd" d="M53.3378 39.5141H54.0648L54.5315 38.1141C54.5315 38.0512 54.5315 38.0064 54.5853 37.9615C54.6482 37.7281 54.6302 37.7192 54.8725 37.5486C55.5187 37.073 55.6174 37.3691 55.4738 37.8448L54.9623 39.5141H55.6623L56.2726 37.7192C56.2726 37.6563 56.2726 37.5935 56.2726 37.5576C56.3624 37.1717 56.2726 36.7588 55.9405 36.6601C55.5607 36.6289 55.1829 36.7409 54.8815 36.9742L54.9533 36.705H54.2353L53.3378 39.4782V39.5141Z" fill="#444847"/>
<path fill-rule="evenodd" clip-rule="evenodd" d="M44.8206 36.7409H44.327L44.1026 37.3422H44.5873C44.5065 37.782 43.1782 40.1693 45.404 39.3885L45.5386 38.6705C45.405 38.7369 45.2632 38.7852 45.1168 38.8141C44.6232 38.7692 45.2335 37.6205 45.3232 37.3512H45.8886L46.0861 36.7409H45.5655L45.7899 36.1575H45.054L44.8475 36.7409H44.8206Z" fill="#444847"/>
<path fill-rule="evenodd" clip-rule="evenodd" d="M51.7672 39.5141L52.5391 39.5231L53.9391 35.3498H53.1493L51.7672 39.5141Z" fill="#444847"/>
<path fill-rule="evenodd" clip-rule="evenodd" d="M48.7606 39.5141L49.4876 39.5231L50.8697 35.3498H50.1338L48.7606 39.5141Z" fill="#444847"/>
<path fill-rule="evenodd" clip-rule="evenodd" d="M38.233 39.55H38.969L39.8665 36.7319H39.1305L38.233 39.55ZM39.8485 35.5831C40.055 35.5831 40.1716 35.7806 40.1178 36.0139C40.097 36.1265 40.0403 36.2294 39.9562 36.3071C39.872 36.3847 39.765 36.433 39.6511 36.4447C39.4536 36.4447 39.328 36.2563 39.3818 36.0139C39.4039 35.9019 39.461 35.7998 39.5449 35.7224C39.6288 35.645 39.7351 35.5962 39.8485 35.5831V35.5831Z" fill="#444847"/>
<path fill-rule="evenodd" clip-rule="evenodd" d="M42.2987 39.55H43.0346L43.9321 36.7319H43.1962L42.2987 39.55ZM43.9142 35.5831C44.1116 35.5831 44.2373 35.7806 44.1834 36.0139C44.1627 36.1265 44.106 36.2294 44.0218 36.3071C43.9377 36.3847 43.8306 36.433 43.7167 36.4447C43.5103 36.4447 43.3936 36.2563 43.4475 36.0139C43.4695 35.9019 43.5267 35.7998 43.6105 35.7224C43.6944 35.645 43.8007 35.5962 43.9142 35.5831V35.5831Z" fill="#444847"/>
<path fill-rule="evenodd" clip-rule="evenodd" d="M59.2523 39.55H59.9882L60.8857 36.7319H60.1498L59.2523 39.55ZM60.8678 35.5831C61.0652 35.5831 61.1909 35.7806 61.137 36.0139C61.1163 36.1265 61.0596 36.2294 60.9754 36.3071C60.8913 36.3847 60.7842 36.433 60.6703 36.4447C60.4639 36.4447 60.3472 36.2563 60.4011 36.0139C60.4231 35.9019 60.4803 35.7998 60.5641 35.7224C60.648 35.645 60.7543 35.5962 60.8678 35.5831V35.5831Z" fill="#444847"/>
<path fill-rule="evenodd" clip-rule="evenodd" d="M63.659 39.9539H42.2718V40.2411H63.659V39.9539Z" fill="#444847"/>
<path fill-rule="evenodd" clip-rule="evenodd" d="M38.4125 39.9539H34.0418V40.2411H38.4125V39.9539Z" fill="#444847"/>
<rect x="79" y="21" width="1" height="27" fill="#D2D2D2"/>
</svg>
