<svg xmlns="http://www.w3.org/2000/svg" width="192" height="70" fill="none" xmlns:v="https://vecta.io/nano"><path fill="#fff" d="M0 0h192v70H0z"/><path d="M65.939 50.615c.573 0 1.004-.145 1.254-.472.143-.218.215-.472.215-.762 0-.508-.215-.871-.681-1.052-.215-.072-.538-.145-.932-.145h-1.864v2.431h2.007zm-.287-3.192c.394 0 .681-.036.896-.145.358-.181.538-.508.538-.943 0-.472-.179-.762-.538-.907-.215-.109-.538-.145-.932-.145h-1.685v2.14h1.72zM63 44.485h2.975c.824 0 1.398.254 1.756.762a1.75 1.75 0 0 1 .287.98c0 .435-.108.798-.358 1.088-.143.145-.323.254-.573.399.358.109.609.29.789.435.323.326.466.726.466 1.27 0 .435-.143.834-.394 1.197-.43.544-1.111.834-2.007.834H63v-6.965zm7.097-.001h.824v2.575c.215-.254.394-.435.538-.544.287-.181.609-.254 1.039-.254.717 0 1.219.254 1.47.762.143.29.215.653.215 1.161v3.265h-.86v-3.192c0-.363-.072-.653-.143-.834-.179-.254-.466-.399-.86-.399-.358 0-.681.109-.968.363s-.43.689-.43 1.378v2.684h-.824v-6.965zm7.025 6.204c.143.109.358.181.609.181.287 0 .573-.073.86-.181.466-.254.717-.617.717-1.125v-.689c-.108.073-.251.109-.394.145-.179.073-.323.073-.502.109l-.502.073c-.287.036-.538.109-.681.181-.251.145-.394.399-.394.725a.76.76 0 0 0 .287.58zm1.756-2.322c.179 0 .323-.109.394-.218.036-.109.036-.218.036-.363 0-.29-.072-.472-.287-.617s-.502-.181-.896-.181c-.43 0-.717.109-.932.363-.072.109-.143.326-.179.58h-.788c0-.617.215-1.052.609-1.306.358-.254.824-.363 1.326-.363.573 0 1.075.109 1.434.327s.538.58.538 1.052v2.938a.28.28 0 0 0 .072.181c.036.073.108.109.215.109l.143-.036h.143v.617l-.287.072c-.072 0-.179.036-.287.036a.72.72 0 0 1-.645-.326c-.072-.109-.108-.254-.143-.472a2.09 2.09 0 0 1-.753.58 2.01 2.01 0 0 1-1.039.254c-.466 0-.86-.145-1.147-.435-.287-.254-.43-.617-.43-1.052 0-.472.143-.834.43-1.088s.645-.399 1.147-.472l1.326-.181zm3.907 1.488c.036.29.108.508.215.653.215.254.609.399 1.147.399.322 0 .609-.072.824-.218.251-.109.359-.327.359-.617 0-.218-.072-.399-.287-.508-.108-.072-.358-.145-.717-.218l-.681-.181c-.43-.109-.753-.218-.968-.363-.358-.218-.538-.544-.538-.943 0-.472.143-.871.502-1.161s.824-.435 1.398-.435c.789 0 1.326.218 1.649.653.215.29.323.58.323.907h-.789a1.28 1.28 0 0 0-.215-.508c-.215-.218-.538-.326-1.039-.326-.323 0-.573.036-.717.181a.53.53 0 0 0-.251.472c0 .218.108.399.323.544.108.072.323.145.538.181l.573.145c.645.145 1.039.29 1.254.435.323.218.502.544.502 1.016s-.179.834-.538 1.161c-.322.327-.86.508-1.541.508-.789 0-1.29-.181-1.613-.508-.323-.363-.502-.762-.502-1.27h.789zm5.089-5.37h.824v2.575c.215-.254.394-.435.538-.544.287-.181.609-.254 1.039-.254.717 0 1.219.254 1.469.762.143.29.215.653.215 1.161v3.265h-.86v-3.192c0-.363-.072-.653-.143-.834-.179-.254-.466-.399-.86-.399-.358 0-.681.109-.968.363s-.43.689-.43 1.378v2.684h-.824v-6.965zm6.99 6.204c.179.109.394.181.645.181.287 0 .573-.073.86-.181.466-.254.717-.617.717-1.125v-.689c-.108.073-.251.109-.394.145-.179.073-.323.073-.502.109l-.502.073c-.287.036-.538.109-.681.181-.251.145-.394.399-.394.725 0 .218.072.435.251.58zm1.792-2.322c.179 0 .323-.109.394-.218.036-.109.036-.218.036-.363a.73.73 0 0 0-.287-.617c-.215-.145-.502-.181-.896-.181-.43 0-.753.109-.932.363-.108.109-.179.326-.179.58h-.788c0-.617.215-1.052.574-1.306.394-.254.86-.363 1.362-.363.573 0 1.075.109 1.434.327s.538.58.538 1.052v2.938a.28.28 0 0 0 .072.181c.036.073.107.109.215.109l.143-.036h.143v.617c-.143.036-.251.072-.323.072s-.143.036-.251.036a.68.68 0 0 1-.645-.326c-.072-.109-.108-.254-.143-.472a2.09 2.09 0 0 1-.753.58 2.1 2.1 0 0 1-1.039.254c-.466 0-.86-.145-1.147-.435-.323-.254-.466-.617-.466-1.052 0-.472.143-.834.466-1.088.287-.254.645-.399 1.111-.472l1.362-.181zm9.964.218l-1.039-3.047-1.111 3.047h2.15zm-1.541-4.099h1.075l2.474 6.965h-1.004l-.717-2.104h-2.724l-.717 2.104h-.967l2.58-6.965zm5.053 1.887h.825v.725c.215-.29.466-.508.752-.653.251-.109.538-.181.861-.181.716 0 1.218.254 1.469.762.108.254.179.653.179 1.161v3.265h-.86v-3.192c0-.326-.036-.58-.107-.762-.18-.29-.43-.472-.825-.472-.215 0-.358.036-.502.072-.215.073-.43.218-.609.399-.143.181-.215.363-.251.544-.071.145-.071.399-.071.762v2.648h-.861v-5.079zm9.499 2.14c-.036-.363-.108-.653-.216-.907-.25-.399-.609-.58-1.146-.58-.395 0-.717.109-.968.399s-.394.653-.43 1.088h2.76zm-.287-1.995a2.25 2.25 0 0 1 .752.653c.18.254.287.544.359.907.036.218.072.58.072 1.088h-3.656c0 .544.143.943.358 1.27.215.29.574.435 1.04.435.43 0 .788-.145 1.039-.435.143-.145.251-.363.323-.58h.824a2.58 2.58 0 0 1-.215.617c-.144.218-.287.399-.43.544-.251.254-.574.435-.932.508a2.06 2.06 0 0 1-.681.109c-.645 0-1.147-.254-1.577-.689-.43-.472-.645-1.125-.645-1.923 0-.834.215-1.487.645-1.995s1.003-.762 1.684-.762c.359 0 .717.073 1.04.254zm2.975-2.033h.825v4.027l2.15-2.14h1.076l-1.9 1.886 2.007 3.192h-1.075l-1.577-2.575-.681.653v1.922h-.825v-6.965zm5.77 7.945c.215-.036.359-.181.466-.472.036-.145.072-.29.072-.399v-.073l-.036-.036h-.502v-1.052h1.004v.979c0 .363-.072.689-.215.979-.143.254-.43.435-.789.508v-.435zm9.714-1.814c.574 0 1.004-.145 1.255-.472.143-.218.215-.472.215-.762 0-.508-.215-.871-.681-1.052-.215-.073-.538-.145-.932-.145h-1.864v2.43h2.007zm-.322-3.192c.43 0 .716-.036.931-.145.359-.181.538-.508.538-.943 0-.471-.179-.762-.573-.907-.18-.109-.502-.145-.896-.145h-1.685v2.14h1.685zm-2.617-2.938h2.975c.824 0 1.398.254 1.72.762.215.254.323.617.323.979 0 .435-.143.798-.358 1.088-.144.145-.323.254-.574.399a2.29 2.29 0 0 1 .789.435c.322.326.466.725.466 1.27 0 .435-.144.834-.431 1.197-.394.544-1.075.834-1.971.834h-2.939v-6.965zm7.096-.001h.825v2.575c.215-.254.394-.435.537-.544.287-.181.61-.254 1.04-.254.716 0 1.218.254 1.469.762.144.29.215.653.215 1.161v3.265h-.86v-3.192c0-.363-.072-.653-.143-.834-.18-.254-.466-.399-.861-.399a1.4 1.4 0 0 0-.967.363c-.287.254-.43.689-.43 1.378v2.684h-.825v-6.965zm6.989 6.204a1.23 1.23 0 0 0 .646.181c.286 0 .573-.073.86-.181.466-.254.717-.617.717-1.125v-.689c-.108.073-.251.109-.395.145-.179.073-.322.073-.501.109l-.502.073c-.287.036-.538.109-.681.181-.251.145-.394.399-.394.725 0 .218.071.435.25.58zm1.793-2.322c.179 0 .322-.109.394-.218.036-.109.036-.218.036-.363 0-.29-.072-.472-.287-.617s-.502-.181-.896-.181c-.43 0-.753.109-.932.363-.108.109-.143.326-.179.58h-.789c0-.617.215-1.052.574-1.306.394-.254.86-.363 1.362-.363.573 0 1.075.109 1.433.327s.538.58.538 1.052v2.938c0 .073.036.145.072.181.036.073.107.109.215.109l.143-.036h.144v.617c-.144.036-.251.072-.323.072s-.143.036-.251.036a.68.68 0 0 1-.645-.326c-.072-.109-.108-.254-.143-.472a2.11 2.11 0 0 1-.753.58c-.323.181-.681.254-1.04.254-.466 0-.86-.145-1.147-.435-.322-.254-.466-.617-.466-1.052 0-.472.144-.834.466-1.088.287-.254.646-.399 1.112-.472l1.362-.181zm3.441-1.994h.789v.871c.072-.145.251-.363.502-.617s.537-.363.86-.363h.107c.036 0 .072.036.18.036v.871h-.144-.143c-.43 0-.753.145-.968.399-.215.29-.358.617-.358.943v2.938h-.825v-5.079zm4.838 4.316a1.23 1.23 0 0 0 .646.181c.286 0 .573-.073.86-.181.466-.254.717-.617.717-1.125v-.689c-.108.073-.251.109-.43.145-.144.073-.323.073-.466.109l-.502.073c-.323.036-.538.109-.681.181-.287.145-.394.399-.394.725 0 .218.071.435.25.58zm1.793-2.322c.179 0 .322-.109.394-.218.036-.109.036-.218.036-.363a.73.73 0 0 0-.287-.617c-.215-.145-.502-.181-.896-.181-.43 0-.753.109-.932.363-.108.109-.179.326-.215.58h-.753c0-.617.215-1.052.574-1.306.394-.254.86-.363 1.362-.363.573 0 1.075.109 1.433.327s.538.58.538 1.052v2.938c0 .073.036.145.072.181.036.073.107.109.215.109l.107-.036h.18v.617c-.144.036-.251.072-.323.072s-.143.036-.287.036c-.287 0-.502-.109-.609-.326-.072-.109-.108-.254-.143-.472a2.11 2.11 0 0 1-.753.58c-.323.181-.681.254-1.075.254-.466 0-.825-.145-1.112-.435-.322-.254-.465-.617-.465-1.052 0-.472.143-.834.43-1.088s.681-.399 1.147-.472l1.362-.181zm3.584-3.409h.86v1.415h.789v.689h-.789v3.301c0 .181.036.29.179.363.036.036.144.036.323.036h.107.18v.689c-.108 0-.216.036-.323.036-.072.036-.215.036-.323.036-.394 0-.645-.109-.788-.327-.144-.181-.215-.435-.215-.762V47.06h-.681v-.689h.681v-1.415zm6.881-.473h5.018v.871h-4.086v2.104h3.763v.798h-3.763v2.358h4.158v.834h-5.09v-6.965zm6.954 0h.824v4.027l2.151-2.14h1.075l-1.936 1.886 2.043 3.192h-1.075l-1.577-2.575-.681.653v1.922h-.824v-6.965zm-24.552-23.94c1.291 0 2.258.798 2.258 2.721v14.583c0 1.959-.967 2.757-2.258 2.757-1.362 0-2.258-.798-2.258-2.757v-14.33c0-2.285.896-2.974 2.258-2.974zm-43.907 10.774v-3.41c0-2.176-1.039-3.156-2.831-3.156h-.645c-1.757 0-2.832.979-2.832 3.156v3.41h6.308zm-6.308 3.809v2.721c0 1.959-.968 2.757-2.258 2.757-1.362 0-2.258-.798-2.258-2.757v-9.939c0-4.607 2.581-7.364 6.738-7.364h1.828c4.23 0 6.774 2.757 6.774 7.364v9.939c0 1.959-.967 2.757-2.258 2.757-1.326 0-2.258-.798-2.258-2.757v-2.721h-6.308zm77.276-14.583c1.29 0 2.258.798 2.258 2.721v14.583c0 1.959-.968 2.757-2.258 2.757-1.362 0-2.258-.798-2.258-2.757v-14.33c0-2.285.896-2.974 2.258-2.974zm-17.169 8.668l.144 8.633c0 1.959-.968 2.757-2.258 2.757-1.362 0-2.258-.798-2.258-2.757V22.61c0-1.378.824-2.213 2.222-2.213.932 0 1.792.508 2.509 1.524l6.882 10.193-.144-8.851c0-1.923.968-2.721 2.258-2.721s2.258.798 2.258 2.721v15.272c0 1.379-.824 2.213-2.222 2.213-.968 0-1.828-.508-2.545-1.56l-6.846-9.976zm-26.63 3.339v5.296c0 1.959-.968 2.757-2.258 2.757-1.362 0-2.258-.798-2.258-2.757V23.265c0-1.923.896-2.721 2.258-2.721 1.29 0 2.258.798 2.258 2.721v5.006h6.63v-5.006c0-1.923.968-2.721 2.259-2.721 1.362 0 2.258.798 2.258 2.721v14.583c0 1.959-.896 2.757-2.258 2.757-1.291 0-2.259-.798-2.259-2.757v-5.296h-6.63zm-69.427 4.135h2.796c1.47 0 2.294-.798 2.294-2.322 0-1.487-1.039-2.322-2.903-2.322h-2.186v4.643zm0-8.343h1.613c1.362 0 2.366-.798 2.366-2.068s-.717-1.886-2.151-1.886h-1.828v3.954zm6.523 1.524c1.971.726 3.154 2.576 3.154 4.571 0 3.809-2.401 6.167-7.168 6.167h-4.839c-1.613 0-2.186-.471-2.186-1.886V22.43c0-1.233.574-1.886 2.186-1.886h4.086c4.624 0 6.487 2.104 6.487 5.26 0 2.031-.86 3.41-1.721 4.063zm51.183 4.97c0-.726-.215-1.27-.645-1.56-.43-.363-1.291-.762-2.509-1.233-3.441-1.233-5.233-3.047-5.233-5.985 0-1.85.645-3.337 1.935-4.389 1.291-1.125 2.904-1.669 4.875-1.669 3.118 0 5.125 1.233 5.125 2.974 0 1.379-.717 2.14-2.007 2.14-.358 0-.788-.145-1.254-.435-.502-.326-1.076-.472-1.757-.472-1.362 0-2.222.653-2.222 1.85 0 .907.896 1.669 2.688 2.358 2.079.762 3.549 1.596 4.409 2.467s1.29 2.14 1.29 3.809c0 1.995-.681 3.555-2.043 4.752-1.362 1.161-3.082 1.741-5.233 1.741-1.684 0-3.082-.29-4.229-.98-1.111-.653-1.685-1.415-1.685-2.285 0-1.233.896-2.176 2.258-2.176.359 0 .861.181 1.577.544.717.399 1.434.58 2.151.58 1.649 0 2.509-.871 2.509-2.031zm-40.753-2.286v5.296c0 1.959-.968 2.757-2.258 2.757-1.362 0-2.258-.798-2.258-2.757V23.265c0-1.923.896-2.721 2.258-2.721 1.29 0 2.258.798 2.258 2.721v5.006H91.1v-5.006c0-1.923.968-2.721 2.258-2.721 1.362 0 2.258.798 2.258 2.721v14.583c0 1.959-.896 2.757-2.258 2.757-1.29 0-2.258-.798-2.258-2.757v-5.296h-6.631z" fill="#0d3aa9"/><path fill-rule="evenodd" d="M41.366 36.824c-.026-.078-.053-.156-.105-.208s-.158 0-.158.078.026.182.131.182c.053.026.079 0 .131-.052zm-18.604.779c.21-.026.42-.026.631-.208-.263.052-.447.078-.631.208zm16.108 3.895c-.131-.026-.289-.052-.42-.026.131.156.289.104.42.026zm-22.02-.26c-.079 0-.131.026-.184 0-.052 0-.158 0-.131.026.026.078-.026.13-.026.208.079-.026.131-.026.184-.052.052-.052.158-.026.158-.182zm16.791-5.479c.184-.026.368-.026.631-.052-.289-.208-.447-.052-.631.052zm-5.991 3.713c.105.026.184.182.263.078.105-.104-.026-.234 0-.338-.184.026-.105.234-.263.26zm.552 0c.21-.078.368-.104.526-.156.053 0 .105-.026.105-.052 0-.078-.052-.104-.105-.078-.21 0-.342.104-.526.286zm-1.051-.052c-.105.182-.289.26-.21.415 0 .026.184 0 .237-.052.158-.13-.026-.208-.026-.364zm2.365-4.362c.236.078.578 0 .709-.104-.263-.052-.473.026-.709.104zm-4.099 1.818c-.315-.026-.578.078-.815.208.263-.052.552-.052.815-.208zm17.606.208c-.026.234 0 .286.026.26.158-.182.289-.078.447 0 .052.026.131.052.131-.052.026-.052-.053-.078-.105-.104l-.499-.104zm-24.043 2.96c-.053-.078-.158-.078-.158-.078-.184.182-.42.234-.631.338-.053.026-.026.052-.026.104.026.026.053.052.079.026l.736-.389zm22.388-2.856c-.42-.13-.92.052-1.261-.337-.026-.026-.105-.026-.158-.026-.053.026-.079.13-.026.13.236-.026.315.234.526.26.289.026.631.078.92-.026zm-13.953.649c-.368.078-.736.052-1.051.312.131.078.236.026.315-.026.079-.078.21-.078.263-.052.263.156.394.052.473-.234zm-6.596 1.091l-1.655.753c-.079.052-.105.104-.079.156.053.078.105 0 .158-.026.158-.078.236-.234.394-.26.447-.13.788-.416 1.183-.623zm15.319-2.752c.394.234.762.13 1.235.026-.473-.234-.841-.104-1.235-.026zm.447 1.272c.315.13.604 0 .92-.026-.105-.104-.552-.052-.158-.364.026-.026.026-.156-.026-.182-.079-.052-.21-.052-.289-.052-.052 0-.026.078-.026.13.105.312.105.312-.236.39-.053 0-.131.026-.184.104zm6.123-.649v.052l.92.182c.079.026.158 0 .184.104.079.13.184.13.289.078l.421-.156a1.29 1.29 0 0 1-.184-.078c-.315-.078-.657-.026-.867-.286-.053-.052-.079-.052-.131 0-.131.156-.289.234-.499.104-.026-.026-.079 0-.131 0zm-16.607 1.454c-.158-.078-.315-.104-.499.052-.053.078-.184.104-.263.078-.21-.052-.394.052-.552.156-.131.078-.315.13-.42.338.657-.104 1.288-.182 1.734-.623zm22.414.519c-.263-.389-1.051-.675-1.55-.545-.079.026-.158.052-.21-.052-.105-.182-.289-.156-.499-.286.21.493.604.519.999.571.053-.026-.079-.13.026-.156.079-.026.158.026.158.052-.026.182.131.182.184.156.289-.078.499.104.709.234.053.026.105.078.184.026zm-26.356 1.065c.105-.156.21-.208.342-.234.499-.078.946-.312 1.419-.467.053-.026.105-.052.158-.052.079-.052.079-.13.079-.208-.026-.104-.105-.052-.158-.052-.184 0-.315.13-.473.182-.342.078-.709.156-1.077.13-.079 0-.158 0-.184.052-.184.312-.657.078-.841.389h-.079c-.131-.078-.21.026-.342.052-.342.13-.604.389-.972.441-.289.026-.499.182-.657.415.131-.156.289-.078.421-.104.158-.026.289-.052.42-.104.21-.026.447-.026.657-.156.026-.026.105-.052.079-.104-.105-.182.026-.13.105-.13.158.026.158 0 .158 0-.158-.234.079-.13.131-.13.184-.13.42-.026.604-.13.21-.13.236 0 .21.208zm-2.68 6.491c.052-.234.158-.415.42-.441.158 0 .184-.104.131-.234-.079-.311.184-.831.499-.935.552-.182-1.524 1.921-1.051 1.61.21-.156.263-.389.315-.623.052-.208.473-.493.683-.415s.447.052.683.104c.079.026.184-.052.184-.156 0-.078-.105-.052-.158-.052-.158 0-.394.052-.42-.156-.026-.182.236-.156.368-.182.368-.078.736-.078 1.051-.337.026-.026.158-.052.079-.156s-.158-.078-.236 0c-.158.156-.394.182-.604.208-.184.052-.131-.026-.105-.13.184-.39.552-.571.946-.649.184-.026.342-.026.447-.208l.079-.026c.105-.104.236-.052.289.026.079.078-.026.156-.105.208-.158.104-.342.156-.368.363.131.078.263.026.394.026.184-.026.368-.052.499.156.026.078.131.104.21.052.263-.104.578-.208.71-.493.079-.13.158-.182.289-.208.236-.052.394-.26.657-.234.053.026.131 0 .21.026.131.052.236.052.315-.104a.36.36 0 0 1 .289-.208c.105-.026.263-.13.21-.26s-.184-.208-.342-.13c-.131.052-.263.104-.368.208-.131.156-.315.182-.526.234l-1.761.286c.158-.26.368-.337.552-.364.21-.052.315-.104.236-.338-.052-.26-1.866.338-1.603.286.158-.026 2.076-.909 2.076-1.013s-.105-.052-.158-.052c-.131-.026-.236.026-.315.13s-.184.104-.289.078c-.053-.026-.079-.104-.079-.156 0-.104-1.839.649-1.761.597.315-.104 2.575-.935 2.89-1.194-.447.052-.788.13-1.13.26l-.867.312c-.736.364-3.39 1.168-4.152 1.48-.079.052-.236.182-.289.026-.052-.104.131-.13.21-.182.552-.286 2.969-1.091 3.574-1.272.131-.052.184-.156.289-.182l2.575-1.013c.158-.052.289-.234.447-.338-.131-.078-.342.13-.368-.104-.026-.208.263-.052.368-.182-.289-.104-.473-.026-.526.234-.026.104-.079.13-.158.13a.64.64 0 0 0-.526.156c-.184.156-.447.156-.683.156-.236-.026-.394.052-.473.26-.105.234-.263.337-.526.312-.052 0-.131-.026-.131.078 0 .052-.053.078-.105.104-.578.13-2.838 1.143-3.468 1.246-.237.052-.473.26-.762.26-.158 0-.368 0-.42-.208s.026-.338.236-.467c.131-.078 2.128-.701 2.233-.831.158-.182.315-.208.552-.156.368.078.736.104 1.104-.052.053-.026.21-.052.079-.182-.026-.052-.158-.078-.053-.156.053-.052.184-.156.263-.052.289.338.499.052.657-.104.315-.286.631-.415 1.051-.364.131 0 .158-.104.263-.208-.158 0-.289-.026-.42-.026-.079 0-.158 0-.158-.078s.026-.156.131-.156c.263-.026.447-.156.604-.337.158-.13.394-.156.631-.13.079 0 .158 0 .21-.078.158-.182.342-.156.526-.052.158.078.263.052.315-.078.079-.13.184-.208.315-.208.368-.026.657-.312 1.025-.337.079-.026.105-.156.079-.208-.026-.078-.105-.13-.21-.104-.315.026-.604.13-.867.337a.76.76 0 0 1-.841.078c-.105-.052-.21-.052-.236.052-.079.208-.237.182-.394.234-.184.078-.394.104-.526.26-.158.182-.394.104-.578.208-.342.208-.736.208-1.077.364-.053 0-.079.026-.105 0-.131-.13-.447-.234-.683-.208-.026-.078.105-.052.079-.13-.026-.026-.105-.026-.158 0l-.394.156-.263.182c.368.078.526.156.841.338-.394.441-2.339 1.142-2.996 1.039.289-.208 1.34-.831 1.603-1.013.026-.026.105-.026.079-.078-.052-.13-.079 0-.131 0-.236.026-.394.234-.657.26h.026c-.079-.052-.026-.156-.052-.26-.184.286-.473.182-.657.13-.236-.026-.342.104-.499.182l-.394.208c-.263.104-.42.234-.604.441-.079.078-.315.104-.499.182.079-.208.158-.312.263-.415-.552.156-1.051.467-1.577.675-.525.234-.499-.104-1.025.13-.447.182.473-.104 0 0 .21-.415.315-.545.815-.727.131-.052-1.55 1.168-1.419 1.065.053-.026.184-.078.105.078 0 .052.079.026.079 0 .026-.026.131-.026.105-.078-.158-.13 0-.13.053-.182.368-.389.841-.571 1.314-.753.079-.026.21-.052.184-.208 0-.156.236-.052.263-.208-.158-.104-.604-.104-.841.078-.289.234-.657.364-.972.571-.447.286.946-.701.473-.441-.158.104-.368.182-.525.338-.026-.13.21-.286-.079-.26-.079 0-.131.104-.236.078v-.052c.368-.182.631-.519.972-.675.289-.156-1.366.727-.998.727.053 0-.053-.182.105-.26-.105-.026-.131.026-.158.052-.053.026-.079.078-.131.026.158-.026-.131-.13.026-.208.184-.052.315-.182.42-.337.053-.078.105-.156.237-.104.079.026.158-.104.236-.13.079-.078.131-.156.289-.13-.184.13-.263.286-.236.519l.736-.467c.079-.052.158-.052.237-.104.053-.052.105-.052.079.078 0 .078.105.026.158 0l.552-.286-.604.363c.026.026.052.052.052.078l5.466-2.493c-.473-.052-.788.182-1.13.364-.184.078-.315.13-.526.026-.105-.052-.289 0-.421 0-.105-.026-.236-.026-.263-.156-.053-.13.079-.156.158-.208.289-.26.683-.234.999-.389.131-.052.289-.052.42-.182.052-.052.158-.104.236-.104.342-.052.631-.156.92-.26s.604-.104.893-.26c.604-.338 1.261-.441 1.918-.675.815-.286 1.629-.441 2.47-.597.131 0 .21-.104.315-.104-.21-.026-.421.026-.631.078l-.525.078c-.053.026-.105.052-.131-.026-.026-.052 0-.13.105-.156.158-.026.315-.052.473-.104.631-.208 1.288-.312 1.918-.467.079 0 .158 0 .236.026-.263.182-.631.13-.972.312.841 0 1.55-.364 2.286-.416.762-.052 1.524-.026 2.26-.234.026.13-.158.104-.079.26l-.026-.026c.21-.026.42.104.604-.104l.079-.026c.315.182.631-.104.946-.052.499.078.972-.13 1.471-.026.131.026.289.026.394-.052.236-.182.499-.13.736-.104.342.026.657.052.972 0 .052-.026.131-.026.184-.026.683.13 1.366-.026 2.05.052l1.971.078c.236 0 .394.182.604.26.079-.104-.026-.156-.026-.234.131 0 .184.026.158.156 0 .052 0 .13.079.13.053.026.105 0 .131-.078.052-.13.131-.078.21-.026.158.13.315.208.42-.052 0-.052.079-.078.131-.052.131.026.289.026.42.052l1.918.545a3.57 3.57 0 0 0 1.051.182c.236.026.342.26.499.389-.236-.104-.473-.078-.709-.078h-.079c-.158-.312-.315-.156-.552-.078-.184.078-.394.026-.604-.078-.184-.078-.368-.208-.604-.13-.079.052-.105-.026-.158-.052-.079-.026-.184-.156-.263.026-.026.026-.105.052-.158.026-.368-.234-.815-.052-1.209-.208-.447-.156-.946-.052-1.419-.182-.026-.026-.079-.052-.079 0-.105.234-.263.104-.42.078s-.342 0-.499-.026c-.158 0-.315.026-.42-.078-.053-.026-.131-.026-.158-.026-.42.182-.841.078-1.261.13-.368.026-.762-.078-1.156-.104-.079-.026-.131-.026-.21 0-.158.078-.315.078-.499.026-.289-.078-.552.078-.841.052-.079 0-.026.078-.053.13-.026.104.053.078.105.078.105 0 .236 0 .263.182 0 .13.158.13.263.104.342-.13.709-.078 1.051-.104.552-.052 1.104-.104 1.655-.052.709.052 1.445-.026 2.155.078.788.104 1.603.104 2.391.286.289.052.578.026.893.104.21.052.394.13.631.156.131 0 .236-.104.342-.078.499.156 1.077.13 1.498.493.053.052.158.078.105.156s-.105-.026-.158-.026-.105-.052-.158-.026c-.42.156-.736-.156-1.104-.208-.394-.052-.788-.208-1.209-.182-.053 0-.053.026-.026.052l.026.078c-.053.026-.131.052-.184.052-.131-.052-.263-.078-.368-.156-.158-.078-.289-.078-.447-.052-.289.078-.578 0-.841-.026-.368-.026-.762.078-1.077-.156-.263.104-.526-.13-.788 0-.236.104-.368.026-.447-.156-.053-.156-.131-.13-.236-.078-.184.13-.394.234-.631.234-.236-.026-.473-.182-.709.078-.079.078-.236-.052-.394-.052.263.26.578.234.867.26.079.026.158.026.236.078.026 0 .236.208.184-.104 0-.026.158 0 .263.026.289.078.604.104.893 0 .236-.078.499-.026.736-.026.342-.026.683-.104.946.182.026.026.079.026.105-.026.131-.156.289-.13.447-.104.236.078.499 0 .683.234.053.026.184.052.263.026.447-.052.867.182 1.314.13l.079.026c.131.337.394.311.683.234.131-.026.21-.026.315.078.131.104.263.156.42.156a8.5 8.5 0 0 1 1.025.26c-.131.052-.92-.026-.999-.078-.315-.234-.657-.156-1.025-.104-.184.026-.342.026-.526-.13s-.447-.078-.657-.026c-.105 0-.236 0-.394.104.289.052.526.156.788.13.131-.026.289-.052.342.052s-.053.208-.131.26c-.131.078-.21-.026-.289-.104-.053-.052-.105-.104-.184-.052-.053.026-.131-.13-.158.026-.026.104.052.182.131.156.184-.052.289.078.447.104.184.026.263.026.315-.156.053-.156.184-.182.342-.156a4.64 4.64 0 0 0 .578.13c.867.13 1.708.364 2.496.649.867.312-.184-.338.604.052.158.078.263.104.079.286-.158.156-.105.286.131.415.053.026.079.078.131.104.131-.026-.079-.208.079-.208.131-.026.999-.052 1.077.026.105.104-.368.441-.184.519.105.052-.21.286-.184.493 0 .026-.079.026-.105 0-.263-.26-.631-.338-.893-.545a1.79 1.79 0 0 0-.92-.441c-.079-.026-.053-.156-.131-.182-.105 0 1.682.883 1.655 1.013-.026.052-.052.104-.079.104-.131-.182-.263.026-.42-.026-.184-.026-.105-.13-.079-.208.184-.337.158-.415-.158-.597-.053-.052-.079-.078-.053-.156.105-.156 0-.182-.131-.208-.053-.026-.131-.052-.184-.078s0-.156-.131-.13c-.105.052-.105.13-.131.208-.026.052 0 .104.026.13.053.052.079.026.131-.026.158-.104.289.026.289.104 0 .182.105.286.184.441.053.052.105.13.053.208-.053.104-.158.026-.21 0-.236-.052-.368-.234-.578-.286-.131-.026-.263-.104-.368.052-.053.104-.184.078-.263 0-.053-.078-.105-.026-.158 0-.105.026 0 .104 0 .156.026.156.21.234.289.234.342-.052.526.208.788.312.158.052.263.208.447 0 .079-.078.289-.078.315.052.105.26-1.603-.649-1.393-.623l2.312.701c.053 0 .079.026.079.13-.289-.182-.631-.052-.92-.13-1.182-.364-.42.208-1.629-.026l-2.601-.389c-1.13-.13-2.286-.182-3.416-.208-.236-.026-.499 0-.709 0 .263.338.657.13.972.208.236.026.499-.026.736 0 .158.026.315.104.473.104.158-.026-.079.13.053.156.105.026.263 0 .263.104-.026.156-.184.078-.289.078l-.052.052c-.053.104-.184.182-.315.13-.184-.052-.368-.078-.473.104-.053.052-.079.026-.131.026-.131-.026-.236.026-.342.104-.079-.182-.236-.026-.368-.104-.026-.026-.105 0-.131.026-.105.26-.315.156-.499.182l-1.156.13c.236.026.499.156.736 0 .026 0 .079 0 .105.026.026.052-.053.078-.053.104.526 0 1.051-.078 1.577.052.026 0 .053 0 .079.026.158.208.158.208.526.234-.105-.13-.289-.052-.421-.13.289-.104.578-.052.841.026.105.026.079.104 0 .13-.105.078-.21.13-.342.13-.263 0-.473.234-.762.052-.026-.052.131-.026.079-.104-.053-.026-.158-.078-.236-.052-.342.182-.683.026-1.025.078-.289.026-.578.052-.867 0-.158-.026-.105.104-.105.182-.236-.078-.236-.078-.289.104-.026.052-.105.052-.131.026-.289-.156-.552-.078-.815.026-.105.026-.158 0-.236-.078.053-.104.184-.052.236-.156-.184-.026-.368.052-.526-.026l-.079.052c-.105.234-.131.286-.315.286l-.894.104a4.89 4.89 0 0 0-1.077.13c-.342.104-.683.078-1.025.156-.394.104-.815.13-1.209.234-.42.104-.841.182-1.288.234-.105 0-.21.052-.342.078l-1.734.416-1.183.337-.972.286-1.471.441c-.526.156-1.077.39-1.577.597-.972.416-.237-.363-1.183.104l-1.314.104-.788.26c-1.366.545.21-.338-1.104.312-.473.26-.972.389-1.471.571-.131.052-.263.078-.368.182-.079 0-.184.026-.263.052z" fill="url(#A)"/><path d="M24.943 48.716l.026-.052h-.026v.052z" fill="#dfe67d"/><g fill="#138808"><path d="M54.951 38.615l-.105.286c.42-.779.657-1.662.788-2.571.131-.883.105-1.792.105-2.623.026-.104.026-.337.053-.441-.053-.857-.42-1.843-.841-2.571a1 1 0 0 0-.42-.389c-.131-.078-.263-.078-.263-.078-.105-.078-.263-.104-.289.026.079.182.289.623.158.701-.026 0-.079-.078-.131-.182-.105.078-.473-.078-.526-.156-.105-.052-.552-.441-.657-.467-.079-.026-.105 0-.131.052a2.65 2.65 0 0 0-.079.312c-.026.26-.026.571 0 .753 0 .182-.158.052-.236.104.105.13.026.26.131.389-.026.026.131.493.21.727 0 0 .079.052.158.286.026.078.053.078.079.052-.026.026-.026.026-.053.026.079.052.053.234.105.312h-.053c.105.156.079.337.158.467-.053.026-.053.026-.079.026.026.078.026.156 0 .156l-.079.026c0 .078.105.234.026.234h.079l.026.779c-.105.623-.052 1.376-.158 2.051-.026.078.026.156.105.104 0 .078-.026.156-.053.234-.026.13.079.104.053.234-.105.649-.394 1.22-.762 1.766-.342.545-.788 1.039-1.209 1.558.236-.234.473-.364.657-.649.026.026.079.078.131 0 .184-.182.342-.415.473-.597.131-.208.263-.364.394-.441.053-.052.184-.078.315-.312l-.131.234.105.052.289-.467c.053-.104.105-.182.158-.26.026-.078.079-.182.105-.26 0 0 .079.026.105.052l.053-.182c.158-.026.131.156.053.441-.079.26-.237.597-.342.805.053.026.105.052.131.052l.079-.156.079.026-.394.701-.447.649.21-.312c.026.026.053.052.105-.026l-.368.493c-.131.156-.263.312-.342.493-.053.078.105.078.315-.13.184-.208.289-.364.447-.597l.079.052-.42.519c-.026.104.21-.078.158.026-.053.078-.105.13-.158.234a2.56 2.56 0 0 0 .315-.389 3.73 3.73 0 0 1 .289-.39c.079-.052.184-.104.236-.078.105-.234.236-.389.394-.545.131-.156.263-.286.42-.389.105-.052.289-.545.394-.831z"/><path d="M57.631 36.098c-.105 0-.21 0-.315-.026.447.104.92.026 1.34-.156.42-.208.788-.545 1.025-.961.236-.39.342-.883.315-1.35s-.184-.935-.42-1.35c-.053-.104-.184-.312-.263-.441-.342-.363-.893-.623-1.471-.675s-1.156.104-1.577.364c-.21.156-.342.363-.368.519-.053.182-.026.286-.026.286-.026.13.026.286.131.26.079-.052.21-.156.315-.234.131-.078.236-.104.289-.026 0 .026-.079.052-.131.104.053.078.053.182.053.286.026.104.026.208 0 .234 0 .026-.026.156-.026.286s.026.234.053.26c.026.104.21.052.368.078.184 0 .342.052.394.052.079.052.105.13.184.208 0-.026.053.052.026.026l.026.026c0-.026.026-.026.026-.078 0 .052 0 .052-.026.078.026-.078 0 0 .026-.026-.026.026-.026.026-.026.052.026-.052 0 0 .026-.026h-.026v.026l.026-.026s0 .026-.026 0a.08.08 0 0 1 .026.052c0 .104-.105.078-.105.052l-.026-.078c0-.026 0-.026-.026-.078-.053.026-.105.052-.079.078-.026.026-.105.026-.105.052s.026.078.053.13c.026.026.026.052 0 .13 0 .052-.026.156.026.182-.026 0-.026-.026-.053-.026-.026.026-.053.078-.053.078.079.104.236.182.368.208v.104c.026 0 .079 0 .079-.026.079.13-.026.182-.184.208s-.342-.052-.473-.104c0 .026-.053.104-.053.13.026.026.053.026.105.052l-.026.052a1.29 1.29 0 0 1-.709-.727l.105.208c-.026.026-.053.052-.026.104-.131-.208-.184-.519-.263-.779-.026-.078-.131 0-.158.208.026.234.079.364.184.545l-.053.052c-.079-.156-.131-.364-.184-.519-.053-.052-.079.182-.105.104l-.079-.234c0 .26.158.571.263.805 0 .078.026.156-.026.208l.762.883c.026.026.184.104.368.13.158.052.368.052.526.052z"/></g><path d="M13.565 43.368l.026.078.026.026v.052c.053.052.079.104.131.182.079.13.21.286.342.441.263.286.604.623.972.909s.736.519 1.025.701c.289.156.289.208.184.208h-.184c-.052 0-.105 0-.105.026.315.13.525.26.762.364.053.026.131.052.184.078s.105.052.184.078c.053.026.131.052.21.078.026 0 .053.026.105.026.026.026.079.026.105.052l.315.13c.105.026.21.078.342.104l.42.156c.604.182 1.34.337 1.813.441a2.31 2.31 0 0 0 .289.026 4.14 4.14 0 0 0 .42.078l.604.078c.342.052.342.026.342-.026v.078c.158-.026.42.026.657.052l.657.052v.078h.473c.105 0 .184 0 .263.026h.21c.052 0 .105.026.158.026.053-.026.105-.026.131-.052h.026c1.734-.441 3.653-1.22 5.177-2.571l-1.077-.026h-.604l-.289-.026h-.315-.972-.499-.053-.079-.105c-.053 0-.131-.026-.21-.026-.289 0-.578-.026-.893-.026-.052 0-.131 0-.21-.026h-.052-.026-.079c-.079 0-.158 0-.236-.026-.158 0-.315-.026-.499-.026a2.94 2.94 0 0 0-.499-.052l-.499-.078c-.158 0-.315-.026-.499-.052-1.314-.182-2.601-.467-3.705-.805a8.38 8.38 0 0 0-1.419-.338l-.447-.078h-.158c-.289-.078-.604-.104-.394.078.079.052.131.104.236.156.079.026.158.078.263.13s.21.13.315.182.21.104.315.13l.263.156c.105.052.184.078.236.13.158.052.236.104.21.156 0 0-.079 0-.184-.052-.105-.026-.236-.078-.394-.156 0 .052-.079.052-.184.078-.105 0-.236-.026-.368-.026l-.421-.078c-.131-.052-.236-.078-.315-.104s-.237-.104-.447-.182-.473-.208-.709-.338a4.24 4.24 0 0 1-.683-.39 2.3 2.3 0 0 1-.263-.156c-.053-.052-.105-.104-.158-.13-.079-.078-.131-.104-.158-.104s-.026.052 0 .13z" fill="#acd79e"/><path d="M13.565 43.368l.026.078.026.026v.052c.053.052.079.104.131.182.079.13.21.286.342.441.263.286.604.623.972.909s.736.519 1.025.701c.289.156.289.208.184.208h-.105-.079c-.052 0-.105 0-.105.026.315.13.525.26.762.364.053.026.131.052.184.078s.105.052.184.078c.053.026.131.052.21.078.026 0 .053.026.105.026.026.026.079.026.105.052l.315.13c.105.026.21.078.342.104l.42.156c.604.182 1.34.337 1.813.441a2.31 2.31 0 0 0 .289.026 4.14 4.14 0 0 0 .42.078l.604.078c.342.052.342.026.342-.026v.078c.158-.026.42.026.657.052l.657.052v.078h.473c.105 0 .184 0 .263.026h.21c.052 0 .105.026.158.026.053-.026.105-.026.131-.052h.026c1.734-.441 3.653-1.22 5.177-2.571l-1.077-.026h-.604l-.289-.026h-.315-.972-.499-.053-.079-.105c-.053 0-.131-.026-.21-.026-.289 0-.578-.026-.893-.026-.052 0-.131 0-.21-.026h-.052-.026-.079c-.079 0-.158 0-.236-.026-.158 0-.315-.026-.499-.026a2.94 2.94 0 0 0-.499-.052l-.499-.078c-.158 0-.315-.026-.499-.052-1.314-.182-2.601-.467-3.705-.805a8.38 8.38 0 0 0-1.419-.338l-.447-.078h-.158c-.289-.078-.604-.104-.394.078.079.052.131.104.236.156.079.026.158.078.263.13s.21.13.315.182.21.104.315.13l.263.156c.105.052.184.078.236.13.158.052.236.104.21.156 0 0-.079 0-.184-.052-.105-.026-.236-.078-.394-.156 0 .052-.079.052-.184.078-.105 0-.236-.026-.368-.026l-.421-.078c-.131-.052-.236-.078-.315-.104s-.237-.104-.447-.182-.473-.208-.709-.338a4.24 4.24 0 0 1-.683-.39 2.3 2.3 0 0 1-.263-.156c-.053-.052-.105-.104-.158-.13-.079-.078-.131-.104-.158-.104s-.026.052 0 .13z" fill="#f93"/><path d="M32.957 46.249c.026-.052.053-.078.105-.13 0-.026.026-.052.053-.078l.026-.026v-.026l.026-.026h.447c-.105.026-.289.078-.42.078h-.026v.026l-.026.026-.053.078-.079.13c-.026-.026-.053-.052-.236.208l.184-.26zm.053-.545c.131 0 .289 0 .42-.026-.131.052-.289.078-.394.104l-.026-.078zm4.677 1.09l-1.813.234c0-.052 0-.104-.342-.078l-1.13.078-.683.026c-.026.052-.053.104-.105.13l-.053.078v.026l-.026.026-.079.078a6.7 6.7 0 0 1-.552.623l-.263.26c-.026.052-.079.078-.131.13-.026.026-.079.052-.131.104-.158.13-.289.26-.447.337-.053.052-.131.078-.21.13-.053.026-.105.052-.131.078-.053.026-.105.078-.158.104a3.86 3.86 0 0 0-.394.234c-.026.026-.079.052-.105.078-.053.026-.079.052-.131.078-.105.052-.184.13-.289.182.131-.078.263-.182.42-.26l.394-.312c-.026-.026-.053-.078-.053-.078-.552.389-1.182.779-1.866 1.09-.683.338-1.393.571-2.023.753 0 0-.026-.078-.026-.104-.21.078-.42.104-.631.182-.184-.026-.105-.078.158-.182.053-.026.131-.052.21-.078s.184-.052.289-.104c.026 0 .079-.026.131-.052.053 0 .105-.026.158-.052.105-.052.236-.078.342-.13.026 0 .079-.026.105-.026.026-.026.053-.026.079-.052.053-.026.131-.052.184-.078l.368-.156c.131-.052.263-.104.368-.182.131-.052.263-.13.368-.182.131-.052.236-.13.368-.208.105-.052.21-.13.315-.182.105-.078.21-.13.289-.208.053-.026.105-.052.131-.078.053-.052.105-.078.131-.104-.026-.026-.053-.078-.079-.104-.053.026-.079.052-.131.104l-.131.078-.263.156-.026-.052.21-.13.131-.078a.57.57 0 0 1 .131-.104l.421-.312.394-.338.053-.052.053-.052.105-.078.21-.182.079-.104a.36.36 0 0 0 .105-.078l.184-.208c.053-.078.131-.13.184-.208l.158-.182.184-.208c.026-.052.053-.078.079-.104l.079-.13.184-.208.079-.13.026-.052.026-.026h.026v-.026c.158 0 .342 0 .499-.026l.236-.182h.158l.893-.052c.604-.052 1.182-.13 1.708-.234.158-.026.158-.078 0-.078-.079 0-.21-.026-.368 0l-.578.026-.526.052c.026 0 .053-.026.079-.026.158-.026 0-.026-.158-.052-.158 0-.315-.026-.158-.052.158 0 .315-.026.473-.052.131 0 .289-.026.447-.078l-1.366.156c-.131 0-.236 0-.342.026l-.026-.026h-.342s-.053.026-.079.052l-.92.026H32.8v.026l-.026.052-.079.078c-.026.078-.079.13-.131.182-.053.078-.131.156-.184.234-.026.052-.079.078-.105.104l-.052.052v.026l-.026.026c-.079.078-.158.104-.184.078l-.158.234c-.026.026-.052.078-.079.104l-.105.104c-.105.13-.21.26-.342.364l-.342.337-.079.078c-.052.026-.079.026-.105.052-.053.052-.105.104-.184.156-.053.026-.105.078-.158.13-.052.026-.131.052-.184.104-.105.078-.236.13-.342.208l-.631.286c-.052.026-.105.026-.158.078-.053.026-.131.052-.21.104-.184.078-.368.208-.604.286-.21.13-.447.208-.683.312l-.236.078c-.026.026-.053.052-.079.104 0 0-2.864 2.233-4.441 2.856-.105.052-.236.078-.368.156l.026-.026c.026 0 .079.026.105.026h.052.184l.578-.026c.368 0 .709-.078.368-.13l.526-.026c.158-.026.342-.026.526-.052.342-.026.42-.078.499-.104.079-.052.158-.078.525-.13.815-.182 1.629-.415 2.418-.727a13.4 13.4 0 0 0 2.286-1.143c.709-.467 1.366-1.013 1.971-1.61l.105-.104c.053-.052.105-.104.131-.156l.21-.208.21-.234c.053-.078.131-.156.184-.234l.21-.26.079-.104.026-.052c.026-.026.079-.234.079-.234l.105.182h.105c.131-.026.263-.026.394-.026s.263-.026.394-.026l1.577-.156c.131 0 .263-.026.394-.052a2.08 2.08 0 0 0 .368-.052l.394-.052.42-.078c.526-.104 1.051-.234 1.603-.415-.709.208-1.287.286-1.892.389z" fill="#138808"/><path d="M27.176 49.702l.709-.701.158-.156.158-.156.079-.078c0-.026.026-.052.053-.078l.131-.182.079-.078.053-.078.105-.156c.053-.052.079-.104.105-.156.053-.052.079-.104.105-.156l.105-.182.079-.156.158-.312.263-.649.158-.337.026-.026v-.026-.026l.026-.052.026-.104c.026-.156.026-.312.053-.493 0 0-1.813 1.688-5.177 2.571h-.026l-.263.026c.052 0 .105.026.158.026h.079.026c.026 0 .079 0 .053.052-.026.026-.026.026-.079.052h.053s.026 0-.026.026l.105-.052h.026.053c0 .026-.026.052-.053.078-.053.026-.105.052-.131.052-.079.026-.105.026-.105.026h-.026-.026a.58.58 0 0 0-.131.078l-.315.156c-.105.052.052.363-.053.389-.762.649-1.471.961-2.68.909l-.394.286v.078l-1.577.208c-.788.13-.815.338-.867.312s-.184 0-.184 0l-.236.156c-1.472.312-3.258-.545-3.258-.545.21.312.683.416.683.416-.21.078.315.208.315.208.972.234 1.077.389.999.363-.105-.026-.105.156-.105.156l.972.182h.158c.105.364-.762.234-.999.234-.263 0-.131.156-.131.156l.158.104s-.736-.052-1.708-.26c-.867-.182-.131.104.026.26.158.104-.079.156-.21.182 0 0 .526-.026.92.286 0 0 .604.052.709.13 0 0 .237.234.578.26l1.235.078 1.761-.208s1.209-.156 1.445-.104c.21.078.552.052.815-.052 0 0 .736-.234 1.498-.675.788-.467 2.785-1.792 3.179-2.155l.131-.104z" fill="#f93"/><g fill="#0d3aa9"><path d="M24.128 21.452l.315-.052c-1.813.052-1.839.026-3.521.312h-.447c-.841.182-1.813.597-2.575 1.013-.184.104-.289.286-.368.441s-.105.26-.105.26c-.079.13-.105.286.026.312.21-.052.683-.286.736-.156.026.026-.079.078-.158.13.053.13-.105.519-.184.545-.079.104-.525.571-.552.675-.21.234.815.286 1.209.234.21-.026.079.156.131.26.158-.104.289-.052.447-.182 0 .026.131-.026.315-.078l.499-.182s.079-.078.342-.182c.105-.026.079-.078.079-.104 0 .026 0 .026.026.078.053-.104.263-.104.342-.182 0 .026 0 .026.026.052.158-.13.368-.13.526-.208 0 .026 0 .026.026.052.079-.026.184-.052.184-.026l.026.078c.105 0 .263-.13.289-.078l-.026-.052c.368-.13.657-.182.946-.234.762-.078-.158.182.683-.052.079 0 .184-.104.053-.156l.289-.052c.184-.026.079-.13.263-.156l1.13-.234 1.156-.104h1.13 1.13c-.368-.052-.657-.13-1.025-.104 0-.052 0-.13-.105-.13l-.867.026c-.158 0-.289 0-.394-.026-.105 0-.21 0-.289-.026-.105-.026-.21-.13-.499-.104l.289-.026v-.104h-.631l-.657.026v-.104l-.21.026c-.236-.208.867-.338 1.366-.415 0-.026-.026-.104-.026-.13l-.21.026v-.078l.867-.078.867-.026h-.421c0-.026 0-.052-.105-.052l1.34-.052c.079-.026 0-.13-.315-.182-.315-.026-.525 0-.814 0v-.052l.709-.026c.105-.026-.21-.104-.105-.156.105 0 .21.026.315-.026l-1.051.026c-.105-.026-.21-.052-.21-.13h-.368-.342c-.21-.026-.394-.078-.552-.156-.053-.026-.21-.026-.421 0l-.526.078z"/><path d="M19.057 17.637h.342c-.473-.052-.946.052-1.366.286a2.38 2.38 0 0 0-.552.467c-.158.182-.289.389-.394.597-.105.234-.158.467-.21.701-.026.234-.026.493.026.727.052.493.263.935.552 1.324.079.13.21.338.315.441a2.48 2.48 0 0 0 1.577.571 2.44 2.44 0 0 0 .867-.156c.263-.104.526-.234.709-.39a.89.89 0 0 0 .342-.571c.026-.182-.026-.312-.026-.312.026-.13-.053-.286-.158-.234-.079.052-.184.182-.315.26-.105.078-.21.13-.263.078-.026-.026.053-.078.105-.156-.052-.052-.052-.156-.079-.26-.026-.13-.026-.208-.026-.234v-.312c-.026-.13-.079-.234-.105-.26-.026-.104-.21-.026-.394-.026-.158 0-.342-.052-.394-.052-.079-.026-.131-.13-.21-.208.026.026-.053-.052-.026-.026v.026s0-.026 0 .026v-.026-.026.026-.026h-.026l.026.026v-.026h-.026.026v.026-.026c-.026-.026 0-.052 0-.078l.053.026v.052c.026 0 .026 0 .052.052.026-.026.105-.052.079-.078.026 0 .105-.026.079-.052.026-.026 0-.078-.026-.104s-.053-.078-.026-.13c0-.052.026-.156-.052-.182.026 0 .052.026.079.026l.053-.104a.67.67 0 0 0-.394-.156v-.104h-.079c-.079-.104 0-.182.158-.208a.71.71 0 0 1 .473.052c.026-.052.053-.104.079-.13-.053-.026-.079-.052-.131-.052l.026-.078a1.39 1.39 0 0 1 .762.675c-.026-.052-.079-.156-.131-.208.052-.026.079-.052.026-.078.184.182.263.493.342.753.052.052.158 0 .158-.234a1.28 1.28 0 0 0-.236-.545l.053-.052c.105.13.158.364.236.493.052.078.052-.182.105-.104.026.078.052.156.105.234-.053-.26-.21-.571-.342-.779-.026-.104-.053-.182 0-.234l-.867-.805c-.026-.052-.184-.104-.368-.13s-.421 0-.578 0zm18.052 3.739l.315.052c-1.708-.545-1.734-.597-3.416-.857a2.74 2.74 0 0 0-.42-.156c-.841-.104-1.918-.026-2.759.13a.8.8 0 0 0-.499.286c-.131.104-.184.208-.184.208-.105.078-.184.234-.079.286.21.026.736-.026.736.104.026.052-.079.052-.184.052 0 .156-.263.467-.368.467-.105.078-.657.39-.736.467-.263.156.657.545 1.051.623.21.052.026.182.053.286.184-.078.289.026.473-.026 0 .026.131.026.315.026l.552-.026s.105-.026.394-.052c.079 0 .079-.026.079-.078v.078c.105-.078.289 0 .394-.052v.078c.184-.078.394 0 .578-.052v.078c.105 0 .184 0 .184.026v.078c.105.026.289-.026.289.026v-.052c.394 0 .683.052.972.078.736.208-.184.13.657.208.105 0 .21-.052.105-.13l.289.026c.184.026.131-.078.315-.052a8.43 8.43 0 0 1 1.13.156l1.104.26 1.104.363 1.051.364c-.342-.156-.578-.338-.946-.441.026-.026.053-.078-.052-.13-.263-.104-.552-.182-.815-.26l-.368-.156c-.105-.026-.184-.078-.263-.13s-.131-.182-.42-.26l.289.078c0-.026.026-.104.026-.104-.184-.052-.394-.13-.604-.208s-.447-.13-.631-.182c0 0 .026-.052.026-.104l-.21-.026c-.131-.286.946-.052 1.419.052.026-.026.026-.104.053-.13l-.21-.052.026-.078.841.208.815.26c-.105-.026-.289-.078-.394-.13.026-.026.026-.052-.079-.078l1.261.39c.131 0 .053-.13-.21-.286l-.788-.26.026-.052c.184.052.473.182.683.208.105 0-.158-.182-.053-.182.105.052.21.078.315.078-.289-.104-.709-.182-.998-.312-.079-.078-.158-.13-.158-.208a1.33 1.33 0 0 1-.342-.104c-.105-.026-.21-.078-.315-.13-.184-.078-.342-.208-.499-.312-.026-.052-.184-.104-.368-.156l-.552-.078z"/><path d="M33.641 16.104a1.29 1.29 0 0 1 .289.104c-.394-.208-.893-.26-1.366-.156a3.03 3.03 0 0 0-.683.234c-.21.13-.394.286-.578.467-.158.156-.289.363-.42.571a3.64 3.64 0 0 0-.236.701c-.079.467-.053.961.105 1.428 0 .13.079.39.131.519a2.45 2.45 0 0 0 1.288 1.039 2.55 2.55 0 0 0 .867.156c.289 0 .578-.052.815-.13a.94.94 0 0 0 .499-.441c.079-.156.105-.286.105-.286.053-.13.053-.286-.079-.286-.079.026-.236.104-.368.156-.158.026-.263.026-.289-.026 0-.052.079-.078.158-.104-.026-.052-.026-.182 0-.286.026-.13.026-.208.052-.234.026-.052.079-.156.105-.286s0-.234 0-.286c0-.104-.184-.104-.368-.156-.158-.052-.315-.13-.368-.182s-.079-.156-.131-.234c.026.026-.026-.078 0-.052-.026-.026 0 0-.026 0v.026s.026-.026 0 .026v-.026-.026h.026-.026.026-.026l.026.026v-.026h-.026l.026.026v-.026c0-.052 0-.052.026-.052l.026.026v.026c0 .026.026.026.026.078.026 0 .131 0 .079-.052.053 0 .105.026.131 0 0-.026 0-.078-.026-.13 0-.026 0-.078.026-.13.026-.026.105-.13.026-.182l.053.052.079-.078a.68.68 0 0 0-.315-.286s.026-.078.026-.104h-.079c-.026-.13.079-.182.236-.182.158.026.342.156.447.234l.105-.104c-.026-.026-.079-.052-.105-.078l.053-.052c.289.208.447.519.499.857a.75.75 0 0 0-.052-.234c.026 0 .079-.026.052-.078.079.26.079.571.079.831 0 .078.131.052.21-.182a1.41 1.41 0 0 0-.053-.571l.079-.026c.026.156.026.39.053.545.026.078.105-.156.131-.078 0 .078 0 .156.026.26.053-.26-.026-.597-.053-.857 0-.078 0-.182.053-.208l-.526-1.065c-.026-.052-.158-.156-.315-.234-.184-.078-.368-.13-.526-.182zm16.16 9.503l.289.182c-1.419-1.142-1.419-1.194-2.864-2.051-.079-.078-.263-.208-.342-.286-.762-.415-1.787-.701-2.628-.883a.86.86 0 0 0-.578.078c-.131.052-.237.13-.237.13-.131.052-.263.156-.184.26.184.078.709.208.657.364 0 .026-.105 0-.21-.026-.026.13-.421.338-.499.312l-.867.156c-.315.052.42.727.762.961.184.104-.053.156-.079.26.21.026.263.156.447.182l.315.13.499.182a1.53 1.53 0 0 0 .368.078c.105.026.105 0 .131-.026-.026.026-.026.026-.026.052.105-.026.263.104.368.104 0 .026 0 .026-.026.078.21-.026.368.13.552.156 0 .026 0 .026-.026.078.105.026.184.052.184.104l-.026.052c.079.078.289.078.236.13l.053-.052c.342.156.604.286.841.441.631.441-.21.026.552.415.079.026.21.026.158-.078l.236.13c.184.104.158-.052.315.052l.999.545.92.675.893.727.867.727c-.263-.286-.42-.519-.736-.753.026-.026.079-.078 0-.156l-.657-.545-.289-.26c-.079-.078-.158-.156-.184-.208-.053-.104-.079-.234-.315-.415l.236.182.079-.078-.499-.415-.499-.389s.026-.078.053-.104l-.184-.104c-.026-.312.893.286 1.314.571.026-.026.053-.078.079-.13l-.158-.104.026-.052.709.493.657.545c-.079-.078-.236-.208-.315-.26.026-.026.053-.052-.026-.13l1.025.831c.105.026.105-.104-.105-.338-.21-.208-.394-.338-.631-.519l.052-.052.552.441c.105.052-.079-.208.026-.182.079.078.158.156.263.182-.236-.208-.578-.415-.815-.649-.052-.104-.105-.182-.052-.234-.131-.078-.21-.156-.315-.234l-.236-.234c-.131-.156-.236-.312-.315-.493-.026-.052-.158-.156-.315-.26-.158-.078-.315-.208-.473-.286z"/><path d="M48.513 19.48c.079.052.158.104.236.182-.289-.337-.736-.571-1.209-.649-.236-.026-.473-.052-.736 0-.236.026-.473.104-.683.208-.236.104-.42.234-.604.39s-.368.338-.499.545c-.263.415-.394.883-.447 1.376-.026.13-.053.39-.053.519a2.48 2.48 0 0 0 .815 1.454 3.22 3.22 0 0 0 .762.441c.263.104.552.156.815.182.263 0 .473-.104.604-.234.131-.104.21-.234.21-.234.079-.078.131-.26.026-.286-.105 0-.263.026-.394 0-.158 0-.263-.052-.263-.13 0-.026.079-.026.184-.026 0-.078.053-.182.105-.286l.131-.182c.053-.026.131-.13.21-.234.053-.104.105-.208.105-.26.053-.078-.131-.156-.289-.26-.131-.104-.236-.26-.263-.312s-.026-.182-.026-.286c0 .052 0-.078 0-.026 0-.026 0 0-.026 0 0 0 .026-.026 0 .026v-.026l.026-.026v.026h-.026.026-.026.026l-.026-.026v.026h.026c0-.052.026-.052.053-.052l.026.026-.026.052v.052c.026.026.105.052.105 0a.38.38 0 0 0 .079.052c.053-.052.053-.104.053-.13 0-.052.026-.078.079-.13.026-.026.131-.078.079-.156l.053.078.079-.052c0-.104-.079-.26-.184-.364 0 0 .053-.078.079-.104l-.079-.026c.026-.13.131-.156.289-.078.131.078.236.26.315.364a.28.28 0 0 1 .131-.052c-.026-.052-.026-.078-.053-.104l.053-.052c.184.338.236.649.131 1.013a.75.75 0 0 0 .053-.234c.026 0 .079 0 .079-.078 0 .26-.131.545-.236.805-.026.078.105.104.263-.078a1.46 1.46 0 0 0 .184-.571l.053.026c0 .156-.105.364-.131.493 0 .104.158-.104.158 0-.026.078-.079.156-.079.234.131-.208.21-.545.263-.805.026-.078.053-.182.131-.182l-.105-1.168c0-.052-.079-.208-.21-.338s-.289-.26-.42-.337z"/></g><g fill="#138808"><path d="M43.521 45.679l-.289.104c1.787-.364 1.813-.338 3.416-.909.105 0 .315-.052.421-.078.815-.312 1.682-.909 2.365-1.428.158-.13.263-.338.289-.493.053-.156.053-.286.053-.286.053-.13.053-.286-.079-.286-.184.078-.604.39-.683.26-.026-.026.053-.078.131-.13-.079-.13 0-.519.079-.597.053-.104.42-.649.447-.753.158-.26-.867-.156-1.235-.026-.21.052-.105-.13-.184-.234-.131.156-.263.104-.42.26 0-.026-.131.052-.289.13s-.342.208-.473.286c0 0-.053.078-.289.234-.079.026-.079.078-.053.104-.026-.026-.026-.026-.026-.078-.053.13-.263.156-.315.234l-.053-.052c-.131.156-.315.182-.473.312-.026-.026-.026-.026-.026-.052-.105.052-.184.078-.21.052l-.026-.052c-.105 0-.236.156-.263.104l.026.052c-.342.182-.604.286-.867.389-.762.208.105-.208-.683.156-.079.026-.158.13-.026.182l-.289.078c-.158.078-.052.156-.21.208l-1.077.415-1.104.286-1.13.234-1.104.182c.368-.026.657.026 1.025-.078 0 .052.026.104.131.104.263-.026.578-.13.841-.156l.394-.078h.289c.105.026.21.104.499.026l-.289.078c.026.026.026.104.026.104l.631-.13c.236-.026.447-.078.631-.13 0 0 .026.052.026.104l.21-.078c.263.182-.788.493-1.261.649 0 .026.026.104.026.13l.184-.052.026.078-.841.208-.841.182.394-.078c.026.026.026.052.131.052l-1.288.26c-.105.052 0 .13.315.13.315-.026.499-.104.815-.156v.078l-.709.13c-.079.052.236.078.131.13-.105.026-.21.026-.289.078.315-.026.709-.156 1.025-.182.105 0 .21.026.236.104a.82.82 0 0 1 .342-.078c.131-.026.236-.052.342-.052.21 0 .42 0 .578.052.079.026.236 0 .394-.052.184-.078.394-.13.526-.182z"/><path d="M49.17 48.561c-.105.052-.21.078-.315.078a2.17 2.17 0 0 0 1.288-.519 2.37 2.37 0 0 0 .473-.545c.105-.208.21-.441.263-.675a1.61 1.61 0 0 0 .079-.701 2.23 2.23 0 0 0-.131-.727c-.158-.467-.42-.883-.788-1.22a2.43 2.43 0 0 0-.368-.364c-.447-.26-1.051-.389-1.655-.286a2.75 2.75 0 0 0-.815.286c-.263.13-.473.312-.657.493-.184.208-.236.441-.21.623a.91.91 0 0 0 .053.312c0 .13.105.26.21.208.053-.078.131-.208.236-.311s.21-.156.263-.104c.026.026-.026.078-.079.13.053.052.105.182.131.286.053.104.079.182.053.208.026.052.053.182.079.312.026.104.105.208.131.234.053.104.21 0 .394-.026.158-.052.342-.026.42-.026.053.026.131.104.237.156-.026-.026.052.052.026.026v-.026s0 .026 0-.026v.026.026-.026.026h-.026.026v-.026.026c.026.026 0 .052 0 .078l-.053-.026-.026-.026c0-.026 0-.026-.026-.052-.053.026-.105.052-.079.078-.026.026-.079.052-.079.052 0 .052.026.078.053.104.026.052.053.078.053.156 0 .026 0 .156.079.156-.026 0-.052 0-.079-.026l-.026.104c.105.078.263.13.394.104 0 0 .026.078.052.104.026 0 .053 0 .079-.026.079.104 0 .208-.131.26-.158.052-.368.026-.499.026 0 .026-.026.104-.026.13.026.026.079.026.105.026v.078c-.368-.078-.657-.234-.867-.545.026.052.105.156.158.182-.026.026-.053.052 0 .104-.21-.182-.342-.441-.473-.675-.053-.078-.158.026-.105.234.079.208.184.338.315.493l-.053.052c-.105-.104-.21-.311-.289-.441-.079-.052-.026.182-.105.13-.026-.078-.079-.13-.131-.208.079.234.289.519.473.701.026.104.079.182.026.234l.999.649c.053.052.21.078.394.078a3.42 3.42 0 0 0 .552-.13z"/></g><g fill="#f93"><path d="M6.864 38.201l-.158-.26c.709 1.636.683 1.688 1.577 3.116.026.104.105.312.158.416.473.701 1.235 1.454 1.892 1.973.158.156.368.208.552.208.158.026.289 0 .289 0 .131.026.289-.026.263-.13-.131-.182-.499-.519-.394-.623.026-.026.079.026.158.104.105-.104.525-.104.604-.026.105.026.71.26.841.26.289.104-.026-.857-.236-1.194-.105-.182.131-.13.184-.208-.158-.104-.158-.26-.315-.363.026-.026-.079-.13-.184-.26l-.368-.389s-.105-.052-.289-.26c-.079-.078-.105-.052-.131-.026l.053-.052c-.105-.026-.184-.208-.289-.26.026-.026.026-.026.052-.026-.184-.104-.236-.286-.394-.416l.053-.052c-.079-.078-.131-.13-.105-.156l.053-.052c-.026-.104-.21-.182-.158-.234l-.053.026a6.16 6.16 0 0 1-.552-.779c-.342-.675.21.078-.289-.597-.053-.078-.158-.13-.184-.026l-.158-.234c-.079-.156-.131-.026-.236-.182l-.631-.961-.499-1.013-.42-1.039-.42-1.039c.079.364.105.649.263.987-.026.026-.079.052-.053.13.079.286.21.545.315.805l.131.363c.053.104.079.182.079.286 0 .078-.053.234.079.493l-.131-.26c-.026 0-.105.026-.105.026l.236.597c.079.208.184.389.263.571 0 0-.053.052-.079.052l.105.182c-.131.286-.657-.675-.893-1.09a.28.28 0 0 0-.131.052l.105.182-.079.026-.368-.753c-.131-.26-.236-.519-.342-.779.026.078.105.26.158.364-.026 0-.079.026-.026.104l-.526-1.194c-.079-.078-.131.052-.079.363l.315.753-.053.026-.289-.675c-.079-.078-.026.234-.105.156-.026-.104-.053-.182-.131-.286.105.312.315.649.394.961 0 .104.026.208-.053.234a4.22 4.22 0 0 0 .158.338c.026.13.079.234.105.338.053.182.079.389.053.571 0 .052.053.208.131.364l.289.467z"/><path d="M5.104 44.25c-.053-.104-.079-.208-.131-.286.131.415.394.831.788 1.117.184.156.394.26.631.363.21.078.473.13.709.13s.499 0 .736-.078c.236-.052.473-.13.683-.26a3 3 0 0 0 1.051-1.013 2.4 2.4 0 0 0 .289-.415 2.28 2.28 0 0 0-.053-1.662 2.39 2.39 0 0 0-.447-.753c-.184-.208-.394-.389-.631-.519-.21-.13-.473-.13-.657-.104-.158.052-.263.13-.263.13-.131.026-.263.156-.184.234.079.052.236.104.368.182.105.078.184.182.158.234-.026.026-.105-.026-.184-.052-.026.052-.131.13-.21.182-.105.078-.184.104-.21.104-.053.026-.184.052-.289.13-.105.052-.184.13-.21.182-.105.052.026.208.105.364a1.06 1.06 0 0 1 .105.389c0 .078-.079.156-.105.26.026-.026-.026.078-.026.026.026 0 0 .026.053 0h-.053c.026 0-.026.026 0 .026h-.026.026.026-.026v-.026.026-.026.026-.026.026c-.026.026-.053.026-.079 0v-.052l.053-.026.026-.052c-.026-.026-.079-.078-.105-.026 0-.026-.053-.104-.053-.078-.053 0-.079.052-.105.078s-.053.052-.131.078c-.026 0-.131 0-.131.078-.026-.026 0-.052 0-.078h-.105c-.053.104-.079.286-.026.415 0 0-.079.052-.105.052l.053.078c-.079.104-.184.052-.289-.078-.079-.13-.105-.337-.105-.467h-.158v.104l-.053.026c-.026-.389.105-.675.342-.961-.053.052-.131.13-.158.208-.026-.026-.053-.052-.079 0 .131-.234.368-.415.578-.597.053-.052-.053-.13-.263-.052a1.59 1.59 0 0 0-.42.415l-.079-.026c.105-.13.289-.286.394-.389.026-.078-.21 0-.158-.078.079-.026.131-.104.184-.156-.236.13-.447.39-.604.597-.079.052-.158.104-.21.078l-.473 1.091c-.026.052-.026.208.026.389s.131.363.21.519zm6.254-18.435l.263-.182c-1.55.909-1.603.883-2.917 1.921-.105.052-.315.156-.394.234-.657.545-1.314 1.376-1.761 2.103-.105.182-.131.389-.131.545a.68.68 0 0 0 .053.286c0 .13.053.312.158.26.158-.156.473-.571.578-.467.026 0-.026.078-.079.182.105.078.158.493.105.571 0 .13-.158.727-.158.857-.053.286.867-.13 1.182-.389.158-.104.131.104.236.182.079-.182.21-.208.315-.363l.236-.234c.105-.13.263-.286.342-.416 0 0 .026-.104.21-.311.053-.078.026-.104 0-.13l.053.052c.026-.104.21-.208.236-.312l.053.052c.079-.208.263-.286.342-.467l.053.052c.079-.078.131-.13.158-.13l.053.052c.105-.052.184-.234.236-.182l-.053-.052c.263-.26.473-.467.71-.623.631-.441-.053.208.578-.363.079-.078.105-.182-.026-.182l.236-.182c.131-.13 0-.156.158-.26a5.82 5.82 0 0 1 .867-.727l.946-.649.999-.545.998-.545c-.368.13-.657.208-.972.389-.026-.026-.053-.078-.131-.052-.263.13-.526.312-.762.441-.131.052-.236.13-.342.156-.105.052-.21.104-.289.104-.079.026-.237 0-.473.156l.236-.156c-.026-.026-.052-.104-.052-.104l-.552.312c-.21.104-.394.234-.552.337l-.079-.078-.158.104c-.315-.078.578-.701.999-.987-.026-.052-.053-.104-.079-.13l-.158.104-.053-.052.71-.467.736-.441-.342.208c-.026-.026-.026-.052-.131 0l1.156-.675c.079-.078-.079-.13-.368-.026-.263.13-.447.26-.71.415l-.026-.078c.158-.104.447-.234.604-.337.079-.104-.237 0-.158-.078a.95.95 0 0 0 .263-.182c-.289.13-.604.389-.893.493-.105.026-.236.052-.263 0-.105.078-.21.13-.315.182l-.315.156c-.184.078-.394.104-.552.13-.079 0-.21.078-.368.182l-.447.337z"/><path d="M5.077 24.879c.105-.052.184-.13.289-.156a2.17 2.17 0 0 0-1.051.883c-.105.208-.21.441-.263.675S4 26.748 4 27.008c.026.234.079.467.158.701.105.234.236.441.368.623.289.39.709.701 1.156.909l.473.234c.499.104 1.13.026 1.655-.26.263-.13.499-.338.683-.545a2.74 2.74 0 0 0 .447-.675c.105-.234.079-.493 0-.649-.053-.182-.158-.26-.158-.26-.053-.13-.184-.234-.263-.156-.026.104-.053.26-.131.39-.053.13-.131.208-.21.182-.026-.026 0-.078.026-.182-.053-.026-.131-.104-.21-.182-.079-.104-.131-.182-.131-.208-.026-.026-.079-.156-.158-.26s-.158-.156-.21-.182c-.053-.078-.184.078-.342.156-.158.104-.342.13-.394.156-.079 0-.158-.052-.263-.078.026.026-.079-.026-.053 0 0 0 0-.026.026.026l-.026-.026s0-.026 0 0v-.026.026h.026-.026c-.026-.052-.026-.078-.026-.078h.053l.026.026c.026 0 .026 0 .053.026.026-.026.079-.104.026-.104l.079-.078c-.026-.052-.053-.052-.105-.078-.026-.026-.053-.052-.079-.104 0-.052-.026-.156-.105-.156h.079l-.026-.104a.79.79 0 0 0-.42.026s-.053-.052-.053-.078l-.079.052c-.105-.052-.079-.182.053-.286.105-.104.315-.156.447-.182 0-.026 0-.104-.026-.13h-.105v-.052c.342-.052.683 0 .972.208-.026-.026-.131-.078-.21-.104.026-.052.026-.078-.026-.104.263.104.473.312.683.493.053.052.131-.078 0-.26-.131-.156-.263-.26-.473-.364l.053-.078c.131.078.289.26.42.337.105.026-.026-.182.053-.156.053.052.131.104.21.156-.184-.208-.473-.389-.683-.519-.053-.078-.131-.13-.105-.208l-1.156-.312c-.079 0-.236.026-.394.078-.184.078-.368.182-.499.286z"/></g><path fill-rule="evenodd" d="M37.897 27.452c-.026-.052-.026-.156-.079-.182-.026-.052-.131 0-.131.052-.026.078 0 .156.079.182.053.026.079 0 .131-.052zm-16.528-.909c.184 0 .368 0 .552-.13-.21.026-.394.026-.552.13zm13.874 4.907c-.105-.052-.236-.104-.368-.078.105.156.236.13.368.078zm-19.471-2.155h-.158c-.053-.026-.131-.052-.131 0 .026.052-.026.104-.026.156h.158c.053-.052.158-.026.158-.156zm15.398-3.453h.552c-.236-.208-.394-.078-.552 0zm-5.649 2.804c.079.026.131.182.21.078.079-.078 0-.182.026-.286-.158 0-.131.182-.236.208zm.473.052c.184-.052.342-.078.499-.104.026 0 .079 0 .079-.052s-.053-.078-.105-.078c-.158 0-.315.078-.473.234zm-.946-.156c-.105.156-.263.208-.21.363 0 .052.158.026.236-.026.131-.104-.026-.182-.026-.337zm2.523-3.687c.21.078.499.052.657-.052-.236-.052-.447 0-.657.052zm-3.81 1.246c-.263-.026-.499.026-.736.156.236-.026.499-.026.736-.156zm15.582 1.74c-.053.208-.026.26 0 .234.158-.13.263-.026.394.026.026.026.105.052.131 0 .026-.078-.053-.104-.105-.13-.131-.026-.263-.078-.42-.13zm-21.573.571c-.026-.078-.131-.104-.131-.078-.184.156-.394.182-.604.234-.026.026-.026.052-.026.078.026.052.026.052.079.052.21-.104.447-.182.683-.286zm20.102-.623c-.368-.156-.815-.026-1.104-.416 0-.026-.079-.026-.131-.026s-.053.104-.026.104c.21 0 .263.26.42.286.289.026.552.13.841.052zm-12.429-.623c-.315.026-.657-.026-.972.182.131.104.21.052.289 0s.21-.052.236-.026c.236.182.342.078.447-.156zm-5.939.415c-.526.13-1.051.312-1.524.519-.079.026-.131.078-.105.13.052.078.105 0 .158 0 .131-.052.236-.182.368-.208.394-.078.736-.312 1.104-.441zm13.822-1.168c.315.26.683.182 1.104.13-.394-.234-.762-.156-1.104-.13zm.263 1.194c.289.13.552.052.841.052-.105-.104-.499-.104-.105-.338.026-.026.026-.13 0-.156a.51.51 0 0 0-.263-.078c-.053-.026-.053.052-.026.104.053.286.053.286-.236.337-.079 0-.131 0-.21.078zm5.492-.052v.026c.263.104.526.182.788.26.079.026.158.026.184.104.026.13.131.13.236.104a1.95 1.95 0 0 0 .368-.104l-.158-.078c-.263-.104-.552-.104-.736-.338-.026-.052-.053-.052-.105-.026-.131.156-.263.208-.447.052h-.131zM24.233 27.4c-.131-.052-.263-.104-.42.026-.079.052-.184.078-.263.052-.184-.078-.342 0-.499.078-.131.078-.289.104-.394.286.578-.026 1.13-.052 1.577-.441zm19.813 2.441c-.21-.389-.867-.727-1.314-.649-.079.026-.158.052-.21-.052-.053-.156-.236-.182-.394-.312.131.467.499.519.841.623.026-.026-.079-.13.026-.156.053 0 .131.052.131.078-.053.156.105.156.158.156.263-.052.42.13.604.26.026.026.105.078.158.052zm-23.439-1.35c.105-.104.21-.156.315-.182.447-.026.867-.182 1.314-.286.053 0 .079-.026.131-.052.079-.026.105-.104.105-.156-.026-.104-.105-.078-.158-.078-.158 0-.289.104-.42.13-.315.052-.657.078-.972.026-.079 0-.131-.026-.158.026-.21.286-.578 0-.788.26h-.053c-.131-.052-.21.026-.315.052-.315.052-.578.286-.92.286-.263 0-.447.104-.604.312.105-.104.237-.026.368-.052.131 0 .263-.026.394-.052.184-.026.394.026.578-.104.026 0 .105 0 .079-.052-.053-.182.053-.13.131-.104.131 0 .131 0 .131-.026-.131-.182.079-.078.105-.104.184-.078.394.026.578-.052s.184.026.158.208zm-5.518 7.452c.079-.182.184-.364.42-.338.158 0 .184-.078.158-.208-.053-.286.237-.753.526-.805a5.46 5.46 0 0 0 1.419-.519c.184-.104.263-.337.342-.519.079-.208.447-.389.631-.312.184.104.42.078.604.156.079 0 .184-.052.184-.13s-.079-.052-.158-.078c-.131 0-.342.026-.342-.156s.21-.13.342-.13c.342-.026.657-.026.946-.208.053-.026.184-.026.105-.156-.053-.078-.131-.078-.21-.026-.158.156-.368.13-.552.156-.158.026-.131-.052-.079-.13.21-.312.526-.467.893-.493.158 0 .315 0 .421-.156l.052-.026c.131-.078.236 0 .289.052.052.078-.053.156-.131.182-.158.078-.315.104-.368.312.105.052.236.052.368.052.158 0 .315-.026.394.182.026.052.131.078.184.078.263-.104.552-.156.709-.415.053-.104.131-.156.263-.156.21 0 .368-.208.604-.13.053 0 .105 0 .158.026.131.052.21.052.315-.078.053-.078.131-.13.263-.156.105 0 .263-.078.21-.208-.026-.13-.158-.182-.289-.156-.105.052-.236.078-.315.182-.158.104-.342.13-.499.13l-1.603.13a.58.58 0 0 1 .526-.286c.21-.026.289-.052.263-.286-.053-.234.079-.415.342-.415.131-.026.105-.104.131-.182 0-.104-.079-.052-.131-.078-.131-.026-.236 0-.315.104-.079.078-.158.052-.236.026-.052 0-.079-.078-.079-.13.026-.104.105-.13.184-.156.289-.078.578-.078.867-.286-.368 0-.709.052-.998.13l-.788.208-2.155.675c-.079.026-.21.13-.263 0-.026-.104.131-.13.21-.156.526-.208 1.051-.415 1.603-.519.131-.026.184-.13.289-.156l2.365-.675c.158-.026.289-.182.42-.286-.105-.078-.315.104-.315-.104 0-.182.263-.026.342-.13-.236-.104-.42-.052-.473.156-.026.104-.079.13-.158.104a.68.68 0 0 0-.499.104c-.184.13-.394.104-.604.078s-.342.026-.447.208-.263.26-.499.208c-.052 0-.105-.026-.105.078 0 .052-.052.052-.105.078-.525.052-.946.467-1.498.519-.236 0-.447.182-.71.156-.158-.026-.342-.026-.368-.234-.026-.182.079-.312.263-.389.131-.052.289-.13.368-.234.158-.182.315-.182.525-.104.315.104.631.156.972.052.053-.026.184-.026.079-.156-.026-.052-.131-.078-.026-.156.053-.026.184-.104.236-.026.236.338.447.104.604-.026.289-.234.604-.312.946-.234.105.026.158-.078.263-.156-.158-.026-.263-.052-.368-.052-.079-.026-.131-.026-.131-.104s.052-.13.131-.13c.236 0 .394-.104.578-.234.131-.13.342-.104.552-.078.079 0 .131.026.184-.052.158-.156.342-.104.499 0 .105.104.21.078.263-.026.079-.13.184-.182.289-.182.342.026.604-.208.946-.208.079 0 .105-.104.105-.182-.026-.052-.079-.13-.184-.104-.289 0-.552.078-.814.234a.73.73 0 0 1-.762 0c-.053-.052-.158-.078-.184 0-.079.182-.236.156-.368.208-.184.026-.368.052-.499.182-.158.13-.368.052-.525.13-.315.156-.683.104-.998.234-.026 0-.053 0-.079-.026a1.06 1.06 0 0 0-.604-.234c-.026-.078.105-.052.079-.104s-.079-.052-.131-.026c-.105.052-.236.078-.342.13-.079.026-.158.052-.263.104.315.104.631.026.92.208-.42.364-1.629.649-2.181.519l.709-.415c.053-.026.131-.026.105-.078-.026-.13-.079 0-.105 0-.236-.026-.394.156-.604.156-.079-.052 0-.13-.026-.234-.184.234-.42.13-.578.078-.21-.078-.315.052-.473.104-.131.052-.263.13-.368.156a1.61 1.61 0 0 0-.578.338c-.079.078-.289.078-.447.13.079-.182.158-.26.263-.363-.499.104-.972.337-1.472.493-.473.13-.946.338-1.445.493-.42.104-.762.389-1.209.441.263-.338.342-.467.788-.571.131-.052.263-.026.394-.104.026-.026.158-.052.079.078 0 .052.053.052.079.026.026-.052.131-.026.079-.078-.105-.13.026-.13.079-.156.368-.312.815-.441 1.235-.571.079 0 .184-.026.184-.156 0-.156.21-.052.237-.182-.105-.104-.499-.13-.736.026-.289.156-.604.26-.92.416l-1.261.597c-.158.078-.342.13-.499.234 0-.104.21-.234-.053-.234-.053-.026-.131.078-.21.052v-.052c.342-.13.604-.416.92-.519.289-.104.473-.39.788-.363.053 0-.026-.182.105-.234-.079-.026-.105.026-.131.052-.053 0-.079.052-.131 0 .158-.026-.105-.13.053-.182s.289-.156.394-.286c.053-.052.105-.13.236-.052.053.026.131-.078.21-.104.079-.052.131-.13.289-.078-.184.104-.263.208-.263.416l.683-.338c.079-.052.158-.052.236-.078.026-.026.079-.026.053.078 0 .078.079.026.131 0a4.2 4.2 0 0 1 .525-.182l-.578.26c.026.026.026.052.053.078l5.045-1.74c-.394-.104-.71.078-1.025.208-.158.052-.289.078-.447-.026-.105-.052-.263-.026-.394-.052-.079 0-.184-.026-.21-.13-.026-.13.105-.156.158-.208.289-.182.631-.13.92-.234.131-.052.289-.026.394-.13.052-.052.131-.078.236-.078.289 0 .552-.104.841-.156.263-.052.526-.026.788-.13.578-.26 1.183-.312 1.761-.467.762-.182 1.498-.234 2.26-.312.105 0 .184-.078.289-.052-.184-.052-.394-.026-.578 0-.158 0-.315.026-.473.026-.026 0-.105.052-.105-.026s.026-.13.105-.13c.131-.026.289-.026.447-.052.552-.13 1.156-.182 1.734-.26.053 0 .131 0 .21.052-.263.13-.578.052-.893.182.736.078 1.393-.182 2.076-.182.657.026 1.314.13 1.997 0 .026.13-.158.052-.105.234v-.026c.184 0 .368.104.552-.052h.053c.289.182.578-.052.841.026.447.104.893-.026 1.314.104.105.026.263.052.368-.026.21-.13.447-.052.657-.026.289.052.578.104.867.078h.158c.578.182 1.209.078 1.787.208.604.13 1.182.13 1.761.26.21.026.342.208.499.286.079-.078 0-.13.026-.208.105 0 .158.052.105.156 0 .052 0 .104.052.13.053 0 .079 0 .131-.078.053-.13.131-.052.184 0 .131.13.263.208.368 0 .026-.052.079-.078.131-.052.131.052.236.052.368.104l1.655.649a4.75 4.75 0 0 0 .92.26c.21.026.263.234.394.39-.184-.13-.394-.13-.604-.13l-.079-.026c-.105-.286-.289-.182-.499-.104-.158.052-.342-.026-.499-.13-.158-.078-.342-.208-.552-.156-.053.026-.079-.052-.131-.078-.079-.026-.131-.13-.236 0 0 .026-.079.052-.131 0-.315-.234-.709-.104-1.077-.26-.368-.182-.815-.156-1.209-.312-.026 0-.053-.026-.079 0-.105.208-.236.078-.368.052-.158-.052-.315-.052-.473-.078-.105 0-.236 0-.342-.104-.026-.026-.105-.052-.131-.026-.394.104-.762-.026-1.13-.026-.342 0-.683-.104-1.025-.182-.053-.026-.105-.026-.184 0-.158.052-.289.026-.447-.026-.236-.104-.499.026-.762-.026-.053-.026-.026.078-.026.104-.026.078.026.078.053.078.105.026.21.026.236.182 0 .13.131.13.236.104.315-.052.604.026.92.026.499 0 .999 0 1.471.078.631.104 1.288.104 1.892.26.71.182 1.419.234 2.102.467.236.078.526.078.762.156.184.078.368.182.552.208.131 0 .236-.078.315-.052.447.182.946.234 1.288.597.026.026.131.052.079.13s-.105-.026-.131-.026c-.053-.026-.105-.052-.131-.052-.394.104-.631-.208-.972-.26-.342-.078-.683-.286-1.051-.286-.053 0-.053.026-.026.052v.052c-.053.026-.105.052-.158.052-.105-.052-.21-.104-.315-.182a.52.52 0 0 0-.394-.078c-.263.026-.499-.052-.736-.104-.315-.052-.683.026-.946-.234-.236.078-.447-.156-.683-.078-.21.078-.315 0-.368-.182-.053-.13-.131-.104-.21-.052-.184.078-.394.182-.604.13-.184-.026-.394-.208-.604 0-.079.078-.21-.052-.342-.052.184.234.473.234.709.311.079.026.158.026.237.052 0 .026.158.234.158-.052 0-.026.131 0 .21.026.263.104.526.156.815.104.21-.052.421.026.657.026.289 0 .604-.026.814.234.026.052.079.026.105 0 .105-.13.263-.078.394-.052.184.078.447.052.604.26.026.052.131.052.21.052.394 0 .762.234 1.156.234l.053.026c.079.312.342.312.578.286.131-.026.21 0 .289.078.105.104.21.182.368.182.079.026.131.078.263.13-.131.052-.21.078-.289.026-.263-.208-.552-.182-.867-.156a.58.58 0 0 1-.473-.182c-.131-.156-.368-.104-.578-.078-.105 0-.21-.026-.342.052.236.078.447.182.683.182.105 0 .236-.026.289.104.026.078-.053.182-.131.208-.131.052-.184-.026-.263-.104-.026-.052-.079-.13-.158-.078-.053 0-.105-.13-.158 0-.026.104.053.182.131.156.158-.026.236.104.368.13.158.052.236.052.289-.104.079-.13.184-.156.315-.104l.526.156c.736.182 1.445.493 2.155.805l2.128 1.065c.131.078.236.13.053.26-.158.156-.131.26.053.39.053.026.079.078.131.104.105-.026-.053-.182.079-.182.105 0 .184.078.236.156.079.078.079.234.236.312.105.052.053.338.053.519 0 .052-.053.026-.079 0-.21-.234-.526-.338-.762-.571-.21-.208-.447-.389-.762-.467-.079-.026-.026-.156-.105-.182-.079 0-.184-.026-.236.078-.026.026-.053.104-.079.078-.105-.156-.236 0-.368-.052-.158-.052-.079-.13-.053-.208.184-.26.184-.337-.079-.519-.053-.052-.079-.104-.026-.156.105-.13 0-.182-.105-.208l-.158-.078c-.053-.026 0-.13-.105-.104-.079 0-.105.104-.131.156-.026.026-.026.078 0 .104.026.078.079.026.131 0 .131-.078.236.052.236.13-.026.156.079.26.131.389.026.078.079.156.026.208-.053.078-.131 0-.21-.026-.184-.052-.289-.234-.473-.312-.105-.026-.21-.13-.315.026-.079.078-.184.052-.236-.026s-.105-.026-.131-.026c-.105.026-.026.104-.026.13a.28.28 0 0 0 .236.26c.315-.026.447.234.657.338.131.078.236.208.394.052.079-.078.263-.052.289.052.053.26.263.26.447.312l1.971.831c.026 0 .079.026.079.13-.263-.182-.578-.104-.815-.208l-3.048-1.116-2.286-.597c-.998-.234-1.997-.338-2.995-.493l-.631-.052c.184.312.552.182.841.26.184.052.447.052.657.078.131.052.263.104.394.13.131 0-.079.104.026.156.079.026.236.026.236.104-.053.13-.184.052-.263.026l-.053.052c-.053.104-.184.156-.315.104-.158-.078-.289-.104-.42.052-.026.052-.079 0-.105 0-.105-.026-.21.026-.315.052-.052-.156-.21-.026-.315-.104-.026-.026-.105-.026-.131.026-.105.208-.289.104-.447.104-.342.026-.709.052-1.051.026.21.026.421.182.657.078.052-.026.079-.026.079.026.052.052-.026.052-.026.078.447.052.92.026 1.393.182l.052.026c.131.208.131.208.447.26-.079-.13-.263-.078-.368-.156.263-.052.526 0 .762.078.079.052.053.104-.026.156-.105.052-.21.078-.315.052-.236-.026-.447.182-.683 0 0-.052.131-.026.079-.078-.026-.052-.131-.104-.184-.078-.315.13-.631-.052-.92-.026-.263 0-.525 0-.788-.078-.131-.026-.105.104-.105.156-.184-.078-.184-.104-.263.078-.026.052-.079.026-.131 0-.21-.156-.473-.104-.709-.052-.079.026-.131 0-.184-.078.026-.078.158-.026.21-.13-.158-.026-.315.026-.447-.052l-.079.026c-.131.208-.158.234-.315.234h-.815c-.315 0-.631 0-.972.052-.289.052-.604 0-.92.052l-1.104.078-1.13.104c-.105 0-.21.026-.315.052l-1.577.208-1.077.208-.893.182-1.34.26c-.499.104-.999.26-1.472.389l-2.654.909-.053.052-3.758 1.246c-.42.182-.893.26-1.366.363-.105.052-.21.052-.315.13-.079 0-.184.026-.263.026z" fill="url(#B)"/><defs><linearGradient id="A" x1="33.389" y1="42.123" x2="31.921" y2="36.607" gradientUnits="userSpaceOnUse"><stop stop-color="#fefefe"/><stop offset="1" stop-color="#30924f"/></linearGradient><linearGradient id="B" x1="28.783" y1="25.474" x2="29.943" y2="31.77" gradientUnits="userSpaceOnUse"><stop stop-color="#fefefe"/><stop offset="1" stop-color="#f89b4f"/></linearGradient></defs></svg>